<svg width="145" height="30" fill="none" xmlns="http://www.w3.org/2000/svg"><path d="M9.611 16.757c.4.516.613 1.152.605 1.805a2.938 2.938 0 0 1-1.03 2.405c-.687.567-1.68.851-2.98.851H0V9.947h6.049c1.01-.057 2.01.22 2.847.787a2.703 2.703 0 0 1 1.039 2.294 2.8 2.8 0 0 1-.545 1.75 2.588 2.588 0 0 1-1.447.97 2.83 2.83 0 0 1 1.668 1.01Zm-5.89-2.184h1.442c.264.021.527-.05.745-.2a.757.757 0 0 0 .243-.621.808.808 0 0 0-.243-.647 1.124 1.124 0 0 0-.745-.209H3.72v1.677Zm2.438 4.066a.754.754 0 0 0 .226-.63c0-.568-.33-.852-.988-.852H3.695v1.677h1.702c.27.022.538-.049.762-.2v.005ZM15.1 9.947v6.687c-.023.46.104.916.362 1.299a1.366 1.366 0 0 0 1.166.476 1.438 1.438 0 0 0 1.192-.476c.275-.375.412-.834.387-1.299V9.947h3.703v6.687a5.61 5.61 0 0 1-.702 2.89 4.508 4.508 0 0 1-1.928 1.801 6.093 6.093 0 0 1-2.733.604 5.73 5.73 0 0 1-2.673-.604 4.295 4.295 0 0 1-1.817-1.792 5.958 5.958 0 0 1-.656-2.899V9.947H15.1ZM33.127 16.757c.396.516.606 1.15.596 1.8a2.935 2.935 0 0 1-1.03 2.406c-.687.567-1.673.85-2.959.85h-6.218V9.948h6.052c1.01-.057 2.01.22 2.848.787a2.701 2.701 0 0 1 1.039 2.294 2.8 2.8 0 0 1-.545 1.75 2.589 2.589 0 0 1-1.447.97 2.83 2.83 0 0 1 1.664 1.01Zm-5.883-2.183h1.443c.264.02.527-.05.745-.2a.758.758 0 0 0 .243-.622.81.81 0 0 0-.243-.647 1.119 1.119 0 0 0-.745-.209h-1.443v1.678Zm2.44 4.065a.753.753 0 0 0 .242-.63c0-.568-.33-.852-.988-.852h-1.694v1.677h1.703c.258.014.513-.056.728-.2l.008.005ZM44.592 16.757a2.89 2.89 0 0 1 .596 1.8 2.938 2.938 0 0 1-1.03 2.405c-.687.568-1.68.852-2.98.852h-6.201V9.947h6.052c1.01-.057 2.01.22 2.848.787a2.704 2.704 0 0 1 1.039 2.294 2.801 2.801 0 0 1-.545 1.75 2.588 2.588 0 0 1-1.448.97 2.83 2.83 0 0 1 1.67 1.01Zm-5.891-2.184h1.439c.264.021.527-.05.745-.2a.756.756 0 0 0 .242-.621.807.807 0 0 0-.242-.647 1.124 1.124 0 0 0-.745-.209H38.7v1.677Zm2.439 4.066a.753.753 0 0 0 .243-.63c0-.568-.33-.852-.988-.852h-1.703v1.677h1.703c.262.017.523-.053.74-.2l.005.005ZM50.166 18.997h3.588v2.817h-7.309V9.947h3.72v9.05ZM58.64 12.914v1.46h3.685v2.8H58.64v1.678h4.189v2.98h-7.922V9.946h7.909v2.98l-4.176-.013ZM65.373 20.935a3.673 3.673 0 0 1-1.498-2.924h3.954c.057.681.36 1.021.907 1.021a.885.885 0 0 0 .51-.14.498.498 0 0 0 .21-.426.77.77 0 0 0-.452-.676 9.073 9.073 0 0 0-1.409-.596 15.164 15.164 0 0 1-1.885-.788 3.648 3.648 0 0 1-1.277-1.123 3.06 3.06 0 0 1-.52-1.895 3.239 3.239 0 0 1 .596-1.97 3.678 3.678 0 0 1 1.626-1.23 6.122 6.122 0 0 1 2.32-.426 5.461 5.461 0 0 1 3.46 1.004 3.572 3.572 0 0 1 1.35 2.83h-4.01a.995.995 0 0 0-.25-.718.809.809 0 0 0-.571-.217.505.505 0 0 0-.388.157.621.621 0 0 0-.149.426.762.762 0 0 0 .426.664c.456.245.93.456 1.418.63a16.07 16.07 0 0 1 1.868.787c.498.262.933.628 1.277 1.073.37.498.56 1.108.536 1.728a3.515 3.515 0 0 1-2.094 3.303 5.612 5.612 0 0 1-2.43.485 5.853 5.853 0 0 1-3.525-.979ZM93.385 16.038c.395.516.605 1.15.596 1.8a2.933 2.933 0 0 1-1.03 2.406c-.687.567-1.673.851-2.959.851h-6.219V9.228h6.036c1.01-.057 2.01.22 2.848.787a2.703 2.703 0 0 1 1.038 2.295 2.801 2.801 0 0 1-.527 1.736c-.361.473-.874.806-1.452.945.664.138 1.256.51 1.669 1.047Zm-5.891-2.187h1.443c.264.02.526-.05.745-.2a.758.758 0 0 0 .242-.622.809.809 0 0 0-.243-.647 1.119 1.119 0 0 0-.744-.208h-1.443v1.677Zm2.439 4.065a.753.753 0 0 0 .242-.63c0-.568-.329-.852-.987-.852h-1.703v1.677h1.703c.263.02.525-.05.745-.195ZM106.836 16.29v1.46h3.686v2.8h-3.686v1.677h4.188v2.98h-7.891V13.321h7.908v2.98l-4.205-.013ZM130.142 9.947v2.95h-3.15v8.913h-3.72v-8.913h-3.116v-2.95h9.986Z" fill="#F7C903"/><path d="M141.608 5.065a3.198 3.198 0 0 0-3.159 2.686 3.199 3.199 0 0 0 2.141 3.55v2.822h-5.576V3.933A3.935 3.935 0 0 0 131.098 0H82.191a3.937 3.937 0 0 0-3.933 3.933v22.134A3.937 3.937 0 0 0 82.19 30h48.907a3.937 3.937 0 0 0 3.933-3.933v-9.82h7.705v-4.98a3.201 3.201 0 0 0 1.665-1.413c.372-.652.504-1.413.372-2.152a3.207 3.207 0 0 0-3.148-2.637h-.017ZM96.621 27.876H82.19a1.809 1.809 0 0 1-1.805-1.805V3.937a1.81 1.81 0 0 1 1.805-1.809h14.43v25.748Zm18.213 0H98.898V2.128h4.235v8.794h7.909v-2.98h-4.206V6.279h3.686V3.482h-3.686V2.128h7.977l.021 25.748Zm18.056-1.805a1.81 1.81 0 0 1-1.792 1.805h-13.987V2.128h13.987a1.808 1.808 0 0 1 1.805 1.805l-.013 22.138Zm8.722-16.732a1.072 1.072 0 1 1 .407-.08c-.13.053-.27.08-.411.08h.004Z" fill="#fff"/></svg>