<svg width="106" height="50" viewBox="0 0 106 50" fill="none" xmlns="http://www.w3.org/2000/svg">
<path d="M63.1983 16.3779C65.213 14.6998 68.1345 11.5165 71.3833 5.58931C73.8581 1.07516 78.6506 2.21244 85.2434 3.77694C88.6998 4.59715 92.6511 5.53479 97.0226 5.83705C96.9618 6.00066 95.7885 7.66943 91.9274 7.35625C88.9376 7.06462 86.4643 6.5209 84.3528 6.0567C79.4921 4.98814 76.5483 4.34095 73.6317 8.16025C70.4951 12.2644 67.195 15.3028 63.7826 17.2287C63.2544 17.5278 62.7122 16.7846 63.1983 16.3779Z" fill="url(#paint0_linear_3229_69742)"/>
<path d="M75.8707 6.88413C75.7679 6.96359 75.7959 7.1272 75.9221 7.16459C79.7178 8.28178 85.5608 9.54856 88.9685 9.815C93.0119 10.1048 94.3067 8.30516 94.3067 8.30516L94.0122 8.23504C89.9966 7.88365 86.8997 7.19047 84.4069 6.63249C80.4664 5.75047 78.0353 5.20631 75.8707 6.88413Z" fill="url(#paint1_linear_3229_69742)"/>
<path d="M73.2765 9.83253C73.5612 9.48422 73.5767 9.46533 73.6831 9.50181L73.6878 9.50649C78.3363 11.1247 80.0061 11.484 86.7684 12.9388C87.214 13.0347 87.6817 13.1353 88.1738 13.2414C88.1738 13.2414 86.5238 15.1205 82.5645 14.251C79.643 13.6106 75.3472 12.0961 72.5893 10.9743C72.4864 10.9322 72.4584 10.806 72.5285 10.7218C72.8928 10.302 73.1236 10.0197 73.2765 9.83253Z" fill="url(#paint2_linear_3229_69742)"/>
<path d="M77.5675 15.4243C75.6089 14.6811 73.4353 13.7228 71.1729 12.4981V12.4935C71.0841 12.4467 71.0654 12.3205 71.1355 12.2457C71.4077 11.9604 71.5924 11.7566 71.7224 11.6131C72.0077 11.2982 72.0299 11.2738 72.1358 11.3155C76.9178 13.2834 81.5595 14.597 84.5885 15.3495C84.1398 15.7048 82.3588 16.8454 79.04 15.8591L77.5675 15.4243Z" fill="url(#paint3_linear_3229_69742)"/>
<path d="M31.185 17.3606H31.6746L31.5298 19.0065C31.9872 18.9304 32.4056 18.8092 32.7397 18.6544C34.4786 17.8504 36.3577 16.7659 37.9517 15.3495L37.947 15.3542C38.0218 15.2888 38.0171 15.1719 37.9423 15.1111C37.5946 14.8273 37.3649 14.6273 37.2077 14.4903C36.8938 14.2169 36.8687 14.195 36.769 14.2604C34.8761 15.537 32.9758 16.5538 31.185 17.3606Z" fill="url(#paint4_linear_3229_69742)"/>
<path d="M29.8783 17.3606C29.9509 17.3396 30.0244 17.3174 30.0986 17.2941C32.0665 16.4667 34.1981 15.3776 36.3296 13.9612L36.3343 13.9659C36.4185 13.9098 36.4278 13.7883 36.353 13.7182C36.0494 13.4356 35.8449 13.2338 35.702 13.0927C35.4004 12.7951 35.3732 12.7683 35.2685 12.8253C31.4869 14.8914 27.939 16.2237 25.1811 17.0604C25.3199 17.1455 25.5263 17.256 25.8001 17.3606H29.8783Z" fill="url(#paint5_linear_3229_69742)"/>
<path d="M64.8622 17.3606H65.6765L65.5659 18.8297C68.1978 20.6838 69.7895 20.3359 70.224 20.1782C68.7142 19.3322 67.1996 18.229 65.9843 16.8126C65.8906 16.7061 65.8349 16.7423 65.4906 16.9658C65.3428 17.0617 65.142 17.1922 64.8622 17.3606Z" fill="url(#paint6_linear_3229_69742)"/>
<path d="M66.419 16.5649C67.3632 17.6447 68.4851 18.5375 69.6444 19.2667C71.0187 20.1315 73.0287 20.1455 74.1552 19.5799C72.0704 18.7151 69.6163 17.425 67.6203 15.6207C67.5207 15.5307 67.4763 15.5644 67.1333 15.8252C66.9773 15.9437 66.7597 16.1091 66.4471 16.3312C66.3723 16.3873 66.3582 16.4948 66.419 16.5649Z" fill="url(#paint7_linear_3229_69742)"/>
<path d="M68.0504 15.3495C69.6444 16.7659 71.5235 17.8504 73.2624 18.6544C74.4123 19.1873 76.5625 19.3228 77.862 18.5842C75.2817 17.6681 72.248 16.2938 69.233 14.2604C69.1334 14.195 69.1084 14.2167 68.7946 14.4901C68.6373 14.6271 68.4076 14.8272 68.0597 15.1111C67.9849 15.1719 67.9803 15.2888 68.0551 15.3542L68.0504 15.3495Z" fill="url(#paint8_linear_3229_69742)"/>
<path d="M75.9034 17.2941C73.9355 16.4667 71.804 15.3776 69.6724 13.9612L69.6677 13.9659C69.5836 13.9098 69.5742 13.7883 69.649 13.7182C69.9525 13.4357 70.157 13.2339 70.2999 13.0929C70.6015 12.7952 70.6288 12.7683 70.7335 12.8253C74.5151 14.8914 78.063 16.2237 80.821 17.0604C80.2647 17.4016 78.624 18.1495 75.9034 17.2941Z" fill="url(#paint9_linear_3229_69742)"/>
<path d="M74.2573 8.60065L74.0383 8.88011C73.9729 8.96425 74.0103 9.09514 74.1131 9.12786C80.1712 11.208 86.6126 12.4046 87.4914 12.3672C90.1979 12.2551 91.259 10.8574 91.259 10.8574C89.9197 10.6105 88.6684 10.3953 87.4613 10.1876C83.457 9.49878 79.9395 8.89366 75.3098 7.49648C75.1592 7.44914 75.0442 7.59598 74.2573 8.60065Z" fill="url(#paint10_linear_3229_69742)"/>
<path d="M41.2378 18.2243C41.5136 17.9999 41.4809 17.5699 41.177 17.3876L41.1817 17.3829C40.8825 17.2037 40.6704 17.066 40.5162 16.9659C40.1718 16.7423 40.1161 16.7061 40.0224 16.8126C38.8071 18.229 37.2926 19.3322 35.7827 20.1782C36.2595 20.3512 38.1293 20.7532 41.2378 18.2243Z" fill="url(#paint11_linear_3229_69742)"/>
<path d="M34.8291 12.4981C32.5667 13.7228 30.3931 14.6811 28.4345 15.4243L26.9621 15.8591C23.6432 16.8454 21.8622 15.7048 21.4135 15.3495C24.4425 14.597 29.0843 13.2834 33.8662 11.3155C33.9722 11.2738 33.9943 11.2982 34.2797 11.6131C34.4097 11.7566 34.5944 11.9604 34.8665 12.2457C34.9367 12.3205 34.918 12.4467 34.8291 12.4935V12.4981Z" fill="url(#paint12_linear_3229_69742)"/>
<path d="M36.3577 19.2667C37.5169 18.5375 38.6388 17.6447 39.583 16.5649C39.6438 16.4948 39.6298 16.3873 39.555 16.3312C39.2424 16.1091 39.0247 15.9437 38.8688 15.8251C38.5257 15.5644 38.4813 15.5307 38.3817 15.6207C36.3857 17.425 33.9316 18.7151 31.8468 19.5799C32.9734 20.1455 34.9834 20.1315 36.3577 19.2667Z" fill="url(#paint13_linear_3229_69742)"/>
<path d="M32.3236 9.50181C32.4301 9.46533 32.4455 9.48422 32.7302 9.83252C32.8832 10.0197 33.1139 10.3019 33.4782 10.7218C33.5483 10.806 33.5203 10.9322 33.4175 10.9743C30.6595 12.0961 26.3637 13.6106 23.4422 14.251C19.483 15.1205 17.8329 13.2414 17.8329 13.2414C18.3212 13.1361 18.7855 13.0362 19.228 12.941L19.2384 12.9388C26.0006 11.484 27.6704 11.1247 32.319 9.50649L32.3236 9.50181Z" fill="url(#paint14_linear_3229_69742)"/>
<path d="M30.0799 7.16459C30.2061 7.1272 30.2342 6.96359 30.1313 6.88413C27.9668 5.20631 25.5357 5.75048 21.5951 6.63249C19.1023 7.19047 16.0054 7.88365 11.9898 8.23504L11.6953 8.30516C11.6953 8.30516 12.9902 10.1048 17.0336 9.815C20.4412 9.54856 26.2843 8.28179 30.0799 7.16459Z" fill="url(#paint15_linear_3229_69742)"/>
<path d="M34.6188 5.58931C37.8675 11.5165 40.7891 14.6998 42.8037 16.3779C43.2899 16.7846 42.7476 17.5278 42.2194 17.2287C38.8071 15.3028 35.5069 12.2644 32.3704 8.16025C29.4538 4.34095 26.5099 4.98814 21.6493 6.0567C19.5377 6.5209 17.0645 7.06462 14.0746 7.35625C10.2135 7.67411 9.04026 6.00066 8.97949 5.83705C13.351 5.53479 17.3022 4.59715 20.7586 3.77694C27.3515 2.21244 32.144 1.07516 34.6188 5.58931Z" fill="url(#paint16_linear_3229_69742)"/>
<path d="M31.7447 8.60058C30.9578 7.59593 30.8429 7.44914 30.6923 7.49648C26.0625 8.89365 22.545 9.49878 18.5408 10.1876C17.3337 10.3953 16.0824 10.6105 14.7431 10.8574C14.7431 10.8574 15.8042 12.2551 18.5107 12.3672C19.3895 12.4046 25.8308 11.208 31.8889 9.12786C31.9918 9.09514 32.0292 8.96425 31.9637 8.88011L31.7447 8.60058Z" fill="url(#paint17_linear_3229_69742)"/>
<path d="M68.131 30.8681L67.5512 37.3302C67.4352 38.6764 66.7491 39.7246 65.4928 40.4747C64.4491 41.1093 63.2218 41.4267 61.8109 41.4267C60.4773 41.4267 59.4529 41.0324 58.7378 40.2439C57.9453 41.0324 56.892 41.4267 55.5777 41.4267H54.1571L54.3311 39.4938C55.1622 39.4553 55.6164 39.0226 55.6937 38.1956L57.2882 20.1653H62.6516L62.5067 22.0982H61.0281L60.6222 26.7716H63.4054C64.7197 26.7716 65.8407 27.1178 66.7684 27.8102C67.7928 28.5987 68.247 29.618 68.131 30.8681ZM64.3331 30.1469C64.4105 29.1853 64.0432 28.7045 63.2315 28.7045H60.4483L59.6655 37.3302C59.6075 37.9264 59.7718 38.436 60.1584 38.8591C60.5642 39.2823 61.0668 39.4938 61.6659 39.4938C62.8836 39.4938 63.5504 38.8495 63.6663 37.561L64.3331 30.1469Z" fill="white"/>
<path d="M88.241 26.7716L88.067 28.7045H86.4145L85.6027 37.8495C85.5061 38.8303 85.9023 39.3688 86.7914 39.465L86.6174 41.4267H85.2548C84.1338 41.4267 83.2544 41.1286 82.6166 40.5324C81.9208 39.8977 81.6212 39.0034 81.7179 37.8495L82.5296 28.7045H80.9931L81.167 26.7716H82.7036L82.9935 23.3675H86.8784L86.5594 26.7716H88.241Z" fill="white"/>
<path fill-rule="evenodd" clip-rule="evenodd" d="M77.6792 40.2413C78.7423 39.4335 79.3221 38.4623 79.4187 37.3276L79.4792 36.654L75.6512 36.2912L75.5629 37.3276C75.5049 38.0392 75.3019 38.5873 74.954 38.972C74.6255 39.3374 74.2582 39.5105 73.8524 39.4912C73.4465 39.472 73.1082 39.2701 72.8376 38.8854C72.5671 38.5008 72.4608 37.9815 72.5187 37.3276L72.7536 34.5725L79.6047 35.2547L79.9986 30.8655C80.1145 29.6154 79.6603 28.5961 78.636 27.8076C77.7082 27.1152 76.5872 26.7691 75.2729 26.7691H74.6641C73.3305 26.7691 72.1515 27.1152 71.1272 27.8076C69.9675 28.5769 69.3297 29.5962 69.2137 30.8655L68.6339 37.3276C68.5179 38.5969 68.9721 39.6162 69.9965 40.3855C70.9242 41.0779 72.0549 41.4241 73.3885 41.4241H73.9683C75.3792 41.4241 76.6162 41.0298 77.6792 40.2413ZM76.1137 30.8655C76.1717 30.1732 76.0654 29.6443 75.7948 29.2789C75.5435 28.9135 75.2053 28.7308 74.7801 28.7308C74.3742 28.7308 74.007 28.9038 73.6784 29.25C73.3305 29.6539 73.1276 30.1924 73.0696 30.8655L72.8759 33.1375L75.8967 33.4116L76.1137 30.8655Z" fill="white"/>
<path fill-rule="evenodd" clip-rule="evenodd" d="M37.5935 40.2359C38.6565 39.4281 39.2363 38.4569 39.3329 37.3222L39.3934 36.6486L35.5654 36.2858L35.4771 37.3222C35.4191 38.0338 35.2161 38.5819 34.8683 38.9666C34.5397 39.332 34.1725 39.5051 33.7666 39.4858C33.3607 39.4666 33.0225 39.2647 32.7519 38.88C32.4813 38.4954 32.375 37.9761 32.433 37.3222L32.6678 34.5671L39.5189 35.2493L39.9128 30.8601C40.0287 29.61 39.5745 28.5907 38.5502 27.8022C37.6224 27.1098 36.5014 26.7637 35.1872 26.7637H34.5783C33.2447 26.7637 32.0657 27.1098 31.0414 27.8022C29.8817 28.5715 29.2439 29.5908 29.1279 30.8601L28.5481 37.3222C28.4321 38.5915 28.8863 39.6108 29.9107 40.3801C30.8384 41.0725 31.9691 41.4187 33.3027 41.4187H33.8825C35.2935 41.4187 36.5304 41.0244 37.5935 40.2359ZM36.0279 30.8601C36.0859 30.1678 35.9796 29.6389 35.709 29.2735C35.4577 28.9081 35.1195 28.7254 34.6943 28.7254C34.2884 28.7254 33.9212 28.8984 33.5926 29.2446C33.2447 29.6485 33.0418 30.187 32.9838 30.8601L32.7901 33.1321L35.8109 33.4062L36.0279 30.8601Z" fill="white"/>
<path d="M28.6121 20.1653L26.5537 43.6191C26.4571 44.7923 25.9449 45.7732 25.0172 46.5617C24.0895 47.3502 22.9395 47.7445 21.5672 47.7445H17.1895L17.3634 45.8116H20.5235C21.8185 45.8116 22.5336 45.0808 22.6689 43.6191L24.5383 22.318H21.475C21.6313 21.1434 22.1229 20.1653 23.469 20.1653L28.6121 20.1653Z" fill="white"/>
<path d="M54.6898 26.7715L54.5159 28.7044H52.8634L52.0516 37.8493C51.955 38.8302 52.3512 39.3687 53.2402 39.4648L53.0663 41.4265H51.7037C50.5827 41.4265 49.7033 41.1284 49.0655 40.5322C48.3697 39.8976 48.0701 39.0033 48.1667 37.8493L48.9785 28.7044L45.7239 28.7044L44.9121 37.8493C44.8155 38.8302 45.2117 39.3687 46.1008 39.4648L45.9268 41.4265H44.5642C43.4432 41.4265 42.5638 41.1284 41.926 40.5322C41.2302 39.8976 40.9306 39.0033 41.0273 37.8493L41.839 28.7044H40.3025L40.4764 26.7715H42.013L42.3029 23.3674H46.1878L45.8689 26.7715L49.1524 26.7715L49.4424 23.3674H53.3272L53.0083 26.7715H54.6898Z" fill="white"/>
<path fill-rule="evenodd" clip-rule="evenodd" d="M45.8689 26.7715L49.1524 26.7715L49.4424 23.3674H53.3272L53.0083 26.7715H54.6898L54.5159 28.7044H52.8634L52.0516 37.8493C51.967 38.7079 52.2601 39.2276 52.9308 39.4083C53.0263 39.434 53.1294 39.4529 53.2402 39.4648L53.0663 41.4265H51.7037C50.5827 41.4265 49.7033 41.1284 49.0655 40.5322C48.3697 39.8976 48.0701 39.0033 48.1667 37.8493L48.9785 28.7044L45.7239 28.7044L44.9121 37.8493C44.8155 38.8302 45.2117 39.3687 46.1008 39.4648L45.9268 41.4265H44.5642C43.4432 41.4265 42.5638 41.1284 41.926 40.5322C41.2302 39.8976 40.9306 39.0033 41.0273 37.8493L41.839 28.7044H40.3025L40.4764 26.7715H42.013L42.3029 23.3674H46.1878L45.8689 26.7715ZM40.725 25.3692L41.0149 21.9651H47.7276L47.4087 25.3692H47.8645L48.1544 21.9651H54.8671L54.5482 25.3692H55.4202L56.0044 18.763H64.1631L63.8078 23.5005H62.3139L62.1516 25.3693H63.4054C64.9792 25.3693 66.405 25.7892 67.6072 26.6863L67.6155 26.6926L67.6238 26.699C68.1305 27.0889 68.5419 27.5332 68.8526 28.0249C69.2494 27.5004 69.7511 27.0383 70.347 26.6423C71.6205 25.7831 73.0758 25.3667 74.6641 25.3667H75.2729C76.8467 25.3667 78.2725 25.7866 79.4747 26.6837L79.4831 26.69L79.4913 26.6964C79.5795 26.7642 79.6647 26.8337 79.747 26.9048L79.8852 25.3693H81.4156L81.7055 21.9652H88.4182L88.0993 25.3693H89.7752L89.3488 30.1068H87.6979L86.9984 37.987C86.9951 38.0203 86.993 38.0499 86.9919 38.0761L88.3097 38.2187L87.9009 42.829H85.2548C83.886 42.829 82.6297 42.4606 81.6655 41.5629C80.9369 40.8958 80.5251 40.064 80.3701 39.1439C79.9762 39.9971 79.3453 40.7366 78.5277 41.3578L78.5212 41.3628L78.5147 41.3676C77.1936 42.3476 75.659 42.8264 73.9683 42.8264H73.3885C71.8004 42.8264 70.3634 42.4092 69.1577 41.5094L69.1544 41.5069C68.6415 41.1217 68.227 40.6796 67.9148 40.1884C67.4743 40.7674 66.9035 41.2649 66.2165 41.6758C64.9222 42.4616 63.4362 42.829 61.8109 42.829C60.6619 42.829 59.602 42.5829 58.71 42.0297C57.7956 42.5753 56.7332 42.829 55.5777 42.829L51.7037 42.8289C50.3347 42.8289 49.0783 42.4604 48.114 41.5624C47.8279 41.3004 47.5907 41.013 47.3987 40.7049L47.2103 42.8289H44.5642C43.1953 42.8289 41.9389 42.4604 40.9747 41.5625C40.4456 41.078 40.0836 40.5067 39.8657 39.8777C39.4938 40.426 39.0135 40.9181 38.4419 41.3525L38.4354 41.3574L38.4289 41.3622C37.1078 42.3422 35.5732 42.821 33.8825 42.821H33.3027C31.7146 42.821 30.2777 42.4038 29.072 41.504L29.0686 41.5015C28.7453 41.2587 28.4611 40.9933 28.217 40.7073L27.9513 43.7343C27.9512 43.7356 27.9511 43.7369 27.951 43.7383C27.8219 45.2937 27.1242 46.6113 25.9254 47.6302C24.7118 48.6617 23.2272 49.1468 21.5672 49.1468H15.6553L16.0816 44.4093H20.5235C20.8998 44.4093 21.001 44.3111 21.0288 44.2827C21.0809 44.2294 21.2214 44.0371 21.2722 43.493C21.2723 43.4919 21.2724 43.4909 21.2725 43.4899L23.0076 23.7204H19.8736L20.0849 22.133C20.177 21.4408 20.3876 20.6093 20.9275 19.9292C21.5252 19.1765 22.4029 18.763 23.4689 18.7629L30.1429 18.763L29.3915 27.3247C29.6536 27.0771 29.944 26.8477 30.2611 26.637C31.5346 25.7777 32.99 25.3613 34.5783 25.3613H35.1872C36.6348 25.3613 37.9571 25.7165 39.0954 26.4717L39.1946 25.3692H40.725ZM38.9448 28.1449C38.8243 28.0262 38.6928 27.912 38.5502 27.8022C37.6224 27.1098 36.5014 26.7637 35.1872 26.7637H34.5783C33.2447 26.7637 32.0657 27.1098 31.0414 27.8022C29.8817 28.5715 29.2439 29.5908 29.1279 30.8601L28.5481 37.3222C28.4321 38.5915 28.8863 39.6108 29.9107 40.3801C30.8384 41.0725 31.9691 41.4187 33.3027 41.4187H33.8825C35.2935 41.4187 36.5304 41.0244 37.5935 40.2359C38.4254 39.6037 38.9614 38.8714 39.2014 38.039C39.2497 37.8714 39.2861 37.6998 39.3104 37.5242C39.3196 37.4574 39.3272 37.3901 39.3329 37.3222L39.3934 36.6486L35.5654 36.2858L35.4771 37.3222C35.4669 37.4471 35.4522 37.567 35.4331 37.6818C35.3434 38.2212 35.1551 38.6494 34.8683 38.9666C34.5397 39.332 34.1725 39.5051 33.7666 39.4858C33.3607 39.4666 33.0225 39.2647 32.7519 38.88C32.4813 38.4954 32.375 37.9761 32.433 37.3222L32.6678 34.5671L39.5189 35.2493L39.9128 30.8601C39.937 30.5989 39.9363 30.3478 39.9108 30.1067C39.8527 29.5586 39.6659 29.0626 39.3503 28.6187C39.233 28.4536 39.0978 28.2956 38.9448 28.1449ZM34.1716 36.1261L33.9443 36.1035L33.8298 37.4461C33.8044 37.7323 33.832 37.8977 33.86 37.9867C33.9366 37.8817 34.0426 37.6597 34.0794 37.2083L34.0798 37.2031L34.1716 36.1261ZM33.9428 38.1265C33.9433 38.1269 33.9428 38.1265 33.9428 38.1265ZM24.5383 22.318L22.6689 43.6191C22.5336 45.0808 21.8185 45.8116 20.5235 45.8116H17.3634L17.1895 47.7445H21.5672C22.9395 47.7445 24.0895 47.3502 25.0172 46.5617C25.9449 45.7732 26.4571 44.7923 26.5537 43.6191L28.6121 20.1653L23.469 20.1653C22.7325 20.1653 22.2518 20.4581 21.9419 20.9157C21.6853 21.2944 21.5458 21.7861 21.475 22.318H24.5383ZM46.7484 38.1244C46.7513 37.9947 46.7583 37.864 46.7693 37.7323L46.7699 37.7253L47.4462 30.1067L47.0073 30.1067L46.3078 37.9868C46.3045 38.0202 46.3024 38.0498 46.3013 38.076L46.7484 38.1244ZM55.5777 41.4267C56.7465 41.4267 57.7089 41.1149 58.465 40.4913C58.5591 40.4137 58.65 40.3312 58.7378 40.2439C58.8086 40.322 58.8825 40.3963 58.9594 40.4666C59.6589 41.1067 60.6094 41.4267 61.8109 41.4267C63.2218 41.4267 64.4491 41.1093 65.4928 40.4747C66.3576 39.9584 66.9522 39.3008 67.2766 38.502C67.4235 38.1404 67.5151 37.7497 67.5512 37.3302L68.131 30.8681C68.1341 30.835 68.1368 30.802 68.1391 30.7691C68.1391 30.7685 68.1391 30.768 68.1392 30.7674C68.1674 30.358 68.1332 29.974 68.0366 29.6151C67.8491 28.9183 67.4263 28.3166 66.7684 27.8102C65.8407 27.1178 64.7197 26.7716 63.4054 26.7716H60.6222L61.0281 22.0982H62.5067L62.6516 20.1653H57.2882L55.6937 38.1956C55.6269 38.9103 55.2786 39.3305 54.6488 39.4563C54.5499 39.4761 54.4439 39.4886 54.3311 39.4938L54.1571 41.4267H55.5777ZM54.2974 38.0651L55.0012 30.1067H54.1467L53.4472 37.9868C53.444 38.0202 53.4419 38.0498 53.4408 38.076L53.798 38.1146L54.2662 38.093C54.2763 38.0925 54.2858 38.0919 54.2946 38.0913C54.2955 38.0839 54.2964 38.0762 54.2971 38.068C54.2972 38.0671 54.2973 38.0661 54.2974 38.0651ZM68.6339 37.3276C68.631 37.3595 68.6284 37.3912 68.6262 37.4228C68.6261 37.4241 68.626 37.4253 68.626 37.4266C68.5973 37.8447 68.6318 38.2351 68.7294 38.5978C68.9174 39.2965 69.3398 39.8924 69.9965 40.3855C70.9242 41.0779 72.0549 41.4241 73.3885 41.4241H73.9683C75.3792 41.4241 76.6162 41.0298 77.6792 40.2413C78.5112 39.6091 79.0472 38.8768 79.2872 38.0444C79.3355 37.8768 79.3718 37.7052 79.3962 37.5296C79.4054 37.4628 79.4129 37.3955 79.4187 37.3276L79.4792 36.654L75.6512 36.2912L75.5629 37.3276C75.5527 37.4525 75.538 37.5724 75.5189 37.6872C75.4291 38.2266 75.2409 38.6548 74.954 38.972C74.6255 39.3374 74.2582 39.5105 73.8524 39.4912C73.4465 39.472 73.1082 39.2701 72.8376 38.8854C72.5671 38.5008 72.4608 37.9815 72.5187 37.3276L72.7536 34.5725L79.6047 35.2547L79.9986 30.8655C80.023 30.6024 80.0221 30.3495 79.996 30.1068C79.9464 29.6456 79.8055 29.2214 79.5734 28.834C79.3474 28.4569 79.0349 28.1147 78.636 27.8076C77.7082 27.1152 76.5872 26.7691 75.2729 26.7691H74.6641C73.3305 26.7691 72.1515 27.1152 71.1272 27.8076C70.3423 28.3282 69.7965 28.9634 69.4897 29.713C69.3432 30.0711 69.2512 30.4552 69.2137 30.8655L68.6339 37.3276ZM74.2574 36.1315L74.03 36.1089L73.9156 37.4515C73.8902 37.7377 73.9178 37.9031 73.9457 37.9921C74.0224 37.8871 74.1284 37.6651 74.1651 37.2137L74.1656 37.2085L74.2574 36.1315ZM81.7179 37.8495C81.6212 39.0034 81.9208 39.8977 82.6166 40.5324C83.2544 41.1286 84.1338 41.4267 85.2548 41.4267H86.6174L86.7914 39.465C85.9023 39.3688 85.5061 38.8303 85.6027 37.8495L86.4145 28.7045H88.067L88.241 26.7716H86.5594L86.8784 23.3675H82.9935L82.7036 26.7716H81.167L80.9931 28.7045H82.5296L81.7179 37.8495ZM61.0613 37.4659C61.0405 37.6791 61.085 37.7899 61.1825 37.9008C61.3134 38.0327 61.4461 38.0915 61.6659 38.0915C61.8491 38.0915 61.9611 38.067 62.0222 38.0461C62.0776 38.0272 62.097 38.0097 62.1048 38.0021C62.1153 37.992 62.23 37.8761 62.2696 37.4354C62.2696 37.4353 62.2696 37.4354 62.2696 37.4354L62.9288 30.1068H61.7291L61.0613 37.4659ZM60.4483 28.7045H63.2315C64.0432 28.7045 64.4105 29.1853 64.3331 30.1469L63.6663 37.561C63.5504 38.8495 62.8836 39.4938 61.6659 39.4938C61.0668 39.4938 60.5642 39.2823 60.1584 38.8591C59.7718 38.436 59.6075 37.9264 59.6655 37.3302L60.4483 28.7045ZM73.6784 29.25C73.3305 29.6539 73.1276 30.1924 73.0696 30.8655L72.8759 33.1375L75.8967 33.4116L76.1137 30.8655C76.1717 30.1732 76.0654 29.6443 75.7948 29.2789C75.5435 28.9135 75.2053 28.7308 74.7801 28.7308C74.3742 28.7308 74.007 28.9038 73.6784 29.25ZM74.7163 30.7476C74.7163 30.7473 74.7163 30.7479 74.7163 30.7476C74.739 30.4765 74.721 30.3105 74.7006 30.2164C74.6023 30.3526 74.5016 30.5825 74.4668 30.9852C74.4668 30.9854 74.4668 30.9849 74.4668 30.9852L74.3916 31.867L74.6191 31.8876L74.7163 30.7476ZM34.6148 30.211C34.5165 30.3472 34.4158 30.5771 34.381 30.9797C34.381 30.98 34.3811 30.9794 34.381 30.9797L34.3059 31.8616L34.5334 31.8822L34.6305 30.7431C34.6305 30.7428 34.6304 30.7434 34.6305 30.7431C34.6531 30.472 34.6353 30.3051 34.6148 30.211ZM36.0279 30.8601C36.0859 30.1678 35.9796 29.6389 35.709 29.2735C35.4577 28.9081 35.1195 28.7254 34.6943 28.7254C34.2884 28.7254 33.9212 28.8984 33.5926 29.2446C33.2447 29.6485 33.0418 30.187 32.9838 30.8601L32.7901 33.1321L35.8109 33.4062L36.0279 30.8601Z" fill="#2B4147"/>
<defs>
<linearGradient id="paint0_linear_3229_69742" x1="53.001" y1="2.39648" x2="53.001" y2="20.3111" gradientUnits="userSpaceOnUse">
<stop stop-color="#FF6E6E"/>
<stop offset="0.375" stop-color="#E50539"/>
</linearGradient>
<linearGradient id="paint1_linear_3229_69742" x1="53.001" y1="2.39648" x2="53.001" y2="20.3111" gradientUnits="userSpaceOnUse">
<stop stop-color="#FF6E6E"/>
<stop offset="0.375" stop-color="#E50539"/>
</linearGradient>
<linearGradient id="paint2_linear_3229_69742" x1="53.001" y1="2.39648" x2="53.001" y2="20.3111" gradientUnits="userSpaceOnUse">
<stop stop-color="#FF6E6E"/>
<stop offset="0.375" stop-color="#E50539"/>
</linearGradient>
<linearGradient id="paint3_linear_3229_69742" x1="53.001" y1="2.39648" x2="53.001" y2="20.3111" gradientUnits="userSpaceOnUse">
<stop stop-color="#FF6E6E"/>
<stop offset="0.375" stop-color="#E50539"/>
</linearGradient>
<linearGradient id="paint4_linear_3229_69742" x1="53.001" y1="2.39648" x2="53.001" y2="20.3111" gradientUnits="userSpaceOnUse">
<stop stop-color="#FF6E6E"/>
<stop offset="0.375" stop-color="#E50539"/>
</linearGradient>
<linearGradient id="paint5_linear_3229_69742" x1="53.001" y1="2.39648" x2="53.001" y2="20.3111" gradientUnits="userSpaceOnUse">
<stop stop-color="#FF6E6E"/>
<stop offset="0.375" stop-color="#E50539"/>
</linearGradient>
<linearGradient id="paint6_linear_3229_69742" x1="53.001" y1="2.39648" x2="53.001" y2="20.3111" gradientUnits="userSpaceOnUse">
<stop stop-color="#FF6E6E"/>
<stop offset="0.375" stop-color="#E50539"/>
</linearGradient>
<linearGradient id="paint7_linear_3229_69742" x1="53.001" y1="2.39648" x2="53.001" y2="20.3111" gradientUnits="userSpaceOnUse">
<stop stop-color="#FF6E6E"/>
<stop offset="0.375" stop-color="#E50539"/>
</linearGradient>
<linearGradient id="paint8_linear_3229_69742" x1="53.001" y1="2.39648" x2="53.001" y2="20.3111" gradientUnits="userSpaceOnUse">
<stop stop-color="#FF6E6E"/>
<stop offset="0.375" stop-color="#E50539"/>
</linearGradient>
<linearGradient id="paint9_linear_3229_69742" x1="53.001" y1="2.39648" x2="53.001" y2="20.3111" gradientUnits="userSpaceOnUse">
<stop stop-color="#FF6E6E"/>
<stop offset="0.375" stop-color="#E50539"/>
</linearGradient>
<linearGradient id="paint10_linear_3229_69742" x1="53.001" y1="2.39648" x2="53.001" y2="20.3111" gradientUnits="userSpaceOnUse">
<stop stop-color="#FF6E6E"/>
<stop offset="0.375" stop-color="#E50539"/>
</linearGradient>
<linearGradient id="paint11_linear_3229_69742" x1="53.001" y1="2.39648" x2="53.001" y2="20.3111" gradientUnits="userSpaceOnUse">
<stop stop-color="#FF6E6E"/>
<stop offset="0.375" stop-color="#E50539"/>
</linearGradient>
<linearGradient id="paint12_linear_3229_69742" x1="53.001" y1="2.39648" x2="53.001" y2="20.3111" gradientUnits="userSpaceOnUse">
<stop stop-color="#FF6E6E"/>
<stop offset="0.375" stop-color="#E50539"/>
</linearGradient>
<linearGradient id="paint13_linear_3229_69742" x1="53.001" y1="2.39648" x2="53.001" y2="20.3111" gradientUnits="userSpaceOnUse">
<stop stop-color="#FF6E6E"/>
<stop offset="0.375" stop-color="#E50539"/>
</linearGradient>
<linearGradient id="paint14_linear_3229_69742" x1="53.001" y1="2.39648" x2="53.001" y2="20.3111" gradientUnits="userSpaceOnUse">
<stop stop-color="#FF6E6E"/>
<stop offset="0.375" stop-color="#E50539"/>
</linearGradient>
<linearGradient id="paint15_linear_3229_69742" x1="53.001" y1="2.39648" x2="53.001" y2="20.3111" gradientUnits="userSpaceOnUse">
<stop stop-color="#FF6E6E"/>
<stop offset="0.375" stop-color="#E50539"/>
</linearGradient>
<linearGradient id="paint16_linear_3229_69742" x1="53.001" y1="2.39648" x2="53.001" y2="20.3111" gradientUnits="userSpaceOnUse">
<stop stop-color="#FF6E6E"/>
<stop offset="0.375" stop-color="#E50539"/>
</linearGradient>
<linearGradient id="paint17_linear_3229_69742" x1="53.001" y1="2.39648" x2="53.001" y2="20.3111" gradientUnits="userSpaceOnUse">
<stop stop-color="#FF6E6E"/>
<stop offset="0.375" stop-color="#E50539"/>
</linearGradient>
</defs>
</svg>
