<svg xmlns="http://www.w3.org/2000/svg" width="68" height="30" fill="none">
    <path fill="#F4D483" fill-rule="evenodd"
          d="M67 0h1l-9.5 14.246L68 30h-1l-9.5-15.754-.76 1.22L65.5 30h-1l-8.27-13.72-.765 1.219L63 30h-1l-7.045-11.688-7.32 11.67h-5.118l9.872-15.74L42.517 0h5.118l7.32 10.56L62 0h1l-7.536 11.294.765 1.102L64.5 0h1l-8.762 13.132.77 1.11L67 0ZM0 30V.018h4.901v25.778h12.695V30H0Zm39.724 0h-16.96V.018h16.96V4.16H27.665v8.162h11.3v4.102h-11.3v9.413h12.059V30Z"
          clip-rule="evenodd"/>
</svg>