<svg width="120" height="33" viewBox="0 0 120 33" fill="none" xmlns="http://www.w3.org/2000/svg">
<path d="M19.392 22.399C19.5056 17.8928 21.9291 6.11622 22.0048 3.46554C21.9669 2.74607 21.9669 2.44313 21.8533 2.29167C21.664 2.06447 21.3989 1.95086 21.1339 1.913C20.7931 1.83726 18.7861 2.44313 18.4453 3.1626C17.9152 4.22287 15.9082 9.1077 15.1509 11.1904C14.6208 12.7429 13.2576 16.0752 12.4624 18.7637C12.3488 18.2336 12.273 17.7035 12.2352 17.1355C12.008 14.7877 12.4624 9.52423 12.3109 7.51729C12.3109 7.51729 12.1973 5.54821 11.9322 3.1626C11.8565 2.55673 11.7429 2.10233 10.3039 2.67033C10.3039 2.67033 8.86501 3.23834 8.82714 3.57914C7.91833 6.11622 7.161 8.69116 6.55513 11.304C5.60846 14.5227 5.30552 17.6277 4.92685 19.9755C4.54819 22.3232 3.79085 24.7846 3.45005 25.504C3.26071 25.8827 3.10925 26.1856 2.88205 26.1856C2.50338 26.2235 1.82177 24.8224 1.89751 22.6262C1.97324 21.0736 2.31404 19.5211 2.95778 18.0821C3.22285 17.5141 3.52578 16.9461 3.45005 16.5675C3.45005 16.5675 3.33645 16.2267 2.76845 16.1131C1.17804 17.9307 0.1935 20.2405 0.00416603 22.6262C-0.0715676 26.1478 0.875103 28.5334 3.67725 28.3062C6.47939 28.079 6.66873 22.9291 7.23673 20.0133C7.80473 17.2112 9.24367 8.42609 10.0389 5.92688C10.1903 6.53275 10.2661 7.13862 10.2661 7.74449C10.3418 9.71357 9.96314 13.3488 9.96314 16.7189C9.96314 20.0891 10.569 22.5504 11.0613 23.3078C11.2506 23.6864 11.6293 23.9136 12.0458 23.9136C12.3109 23.8758 12.576 23.8 12.8032 23.6864L13.8634 22.7776C13.7877 22.399 13.7498 21.9824 13.7498 21.6038C13.8256 20.0512 15.3781 15.5072 16.9685 11.6448C17.953 9.25916 19.2027 6.38128 19.8843 4.90448C19.8464 5.20741 19.8085 5.58608 19.7328 6.04048C19.4677 7.66876 16.5898 21.831 16.5141 24.4816C16.4762 26.375 17.5744 27.7003 19.392 27.511C20.3387 27.4352 21.2475 27.0566 21.9669 26.4507C19.2405 26.8672 19.392 22.399 19.392 22.399Z" fill="#FEEE72"/>
<path d="M26.5486 7.06301C27.1167 7.44168 28.2527 6.57074 28.4041 5.77554C28.5556 4.98034 28.2527 3.7686 27.4196 3.95793C26.5865 4.14727 24.9961 5.96487 26.5486 7.06301Z" fill="#FEEE72"/>
<path d="M34.8419 2.4054C34.3118 2.519 33.7816 2.70833 33.2894 3.01126C33.5544 3.9958 33.3272 5.77554 33.3272 5.77554C33.3272 5.77554 33.1379 7.13875 31.5853 15.5831C30.4872 17.1735 27.6851 20.5815 26.284 20.6572C26.0568 20.6572 25.8296 20.5436 25.6024 20.1271C25.1858 19.3697 25.8675 17.2113 26.1704 15.886C26.4733 14.5607 27.5336 11.2662 27.42 11.1905C27.3064 11.1148 25.3373 11.4177 24.9965 11.8342C23.8605 13.3489 23.4818 18.3473 23.7469 20.2028C24.012 21.4903 25.1858 22.3991 26.4733 22.3234C27.5336 22.2476 29.5405 20.1271 31.0552 18.158L30.4493 21.3388C30.6008 21.7932 30.9795 22.134 31.4717 22.2476C31.8504 22.2855 32.2291 22.2098 32.5699 21.9825C35.2584 8.57769 35.9779 5.05607 35.9779 5.05607C35.9779 5.05607 36.4323 2.8598 36.0158 2.519C35.8643 2.17819 34.8419 2.4054 34.8419 2.4054Z" fill="#FEEE72"/>
<path d="M40.9387 2.0645C40.4085 2.1781 39.8784 2.36744 39.3861 2.67037C39.6512 3.65491 39.424 5.43465 39.424 5.43465C39.424 5.43465 39.1589 7.36586 36.584 21.0358C36.7355 21.4902 37.1141 21.831 37.6064 21.9446C37.9851 21.9825 38.3637 21.9067 38.7045 21.6795C41.3931 8.27466 42.1125 4.75305 42.1125 4.75305C42.1125 4.75305 42.5669 2.55677 42.1504 2.21597C41.9611 1.87517 40.9387 2.0645 40.9387 2.0645Z" fill="#FEEE72"/>
<path d="M46.4666 6.00265C47.0346 6.38132 48.1706 5.51038 48.3221 4.71518C48.4736 3.91997 48.1706 2.70823 47.3376 2.89757C46.5045 3.0869 44.9141 4.94238 46.4666 6.00265Z" fill="#FEEE72"/>
<path d="M101.525 3.12487C102.093 3.50354 103.229 2.6326 103.381 1.8374C103.532 1.0422 103.229 -0.169544 102.434 0.0197904C101.639 0.209125 99.9729 2.02673 101.525 3.12487Z" fill="#FEEE72"/>
<path d="M119.133 10.6225C118.49 11.4555 115.498 16.151 114.4 16.2646C113.529 16.3404 113.415 15.3558 113.453 14.6742C113.605 13.5761 113.681 13.3489 113.756 12.6294C114.286 9.25925 114.362 8.53978 114.249 8.42618C114.249 8.42618 114.059 8.27471 112.999 8.61552C114.4 6.15417 111.636 6.04057 111.636 6.04057C110.045 5.96484 106.675 8.76698 105.615 12.8566C104.29 14.5227 102.283 16.6812 101.184 16.7569C100.957 16.7569 100.73 16.6433 100.503 16.2268C100.086 15.4694 100.768 13.311 101.071 11.9857C101.374 10.6603 102.434 7.36591 102.32 7.29018C102.207 7.21444 100.238 7.51738 99.897 7.93391C99.329 8.76698 98.9503 10.5846 98.761 12.3643C97.7765 13.9169 95.2773 17.5142 93.649 17.59C92.8159 17.6278 92.7402 17.287 92.6644 16.8326C92.5508 16.1132 93.1567 15.0907 93.6111 14.3334C94.3684 13.1217 95.0501 12.0993 94.8607 11.2283C94.6714 10.3574 94.2927 8.99418 93.081 9.06992C92.5887 9.10778 92.513 9.22139 91.9071 9.25925C91.6799 9.29712 91.4527 9.22139 91.2634 9.10778C91.5663 8.53978 91.7178 7.85818 91.6042 7.21444C91.5284 6.53284 91.1119 5.73764 90.0895 5.7755C88.9914 5.81337 87.7418 8.27471 87.8932 9.22138C88.0068 9.78939 88.0826 9.78939 88.4991 10.1302C88.234 10.6603 87.5146 12.2886 86.7951 13.9926C85.6212 15.6587 83.9551 17.9308 83.1977 18.0065C82.3268 18.0822 82.2132 17.0977 82.2511 16.4161C82.4025 15.3179 82.4783 15.0907 82.554 14.3713C83.0841 11.0011 83.1599 10.2817 83.0463 10.1681C83.0463 10.1681 82.8569 10.0166 81.7967 10.3574C83.1977 7.89605 80.4335 7.78245 80.4335 7.78245C78.7673 7.70671 75.3214 10.6225 74.3748 14.9014C73.163 16.6054 71.459 18.6502 70.4745 18.726C69.8307 18.7638 69.8307 18.0822 70.0201 17.2492C70.6259 14.7121 70.9289 12.9323 70.9289 12.9323C71.4212 10.5846 70.4745 8.91845 69.0734 8.99418C67.4073 9.06992 65.9683 10.6982 65.0974 12.0614C65.0974 12.0614 65.4761 10.3195 65.6654 9.86512C65.2867 9.63792 64.8702 9.52432 64.4536 9.60005C63.9992 9.67579 63.5448 9.90299 63.204 10.2059C63.0904 10.8118 62.9768 11.3419 62.9011 11.8721C61.6515 12.9323 60.2883 13.8411 58.8115 14.5227C58.8115 14.2577 58.8494 13.7654 58.8494 13.4625C58.6979 10.6603 56.4637 9.56219 55.4792 9.56219C55.4035 9.52432 55.2899 9.52432 55.1763 9.52432C53.8509 9.60005 52.3741 10.2817 51.9955 11.5691C51.0867 12.8566 50.5565 14.4091 50.4051 15.9617C49.0797 17.6278 47.1864 19.6348 46.0882 19.7105C45.861 19.7105 45.6338 19.5969 45.4066 19.1804C44.9901 18.423 45.6717 16.2646 45.9746 14.9393C46.2776 13.6139 47.3378 10.3195 47.2242 10.2438C47.1106 10.1681 45.1416 10.471 44.8008 10.8875C43.7026 12.4401 43.324 17.4385 43.589 19.294C43.8541 20.5814 45.028 21.4902 46.3154 21.4145C47.3 21.3388 49.0418 19.559 50.4808 17.7793C50.708 19.5212 51.3517 21.3766 53.8131 21.263C56.3501 21.1116 58.0542 18.9153 58.6222 16.1132C59.9854 15.583 61.5379 14.3334 62.5982 13.3867C62.4088 14.4091 62.3331 15.0907 62.3331 15.0907C61.9544 17.2492 61.3486 20.127 61.235 20.5814C61.1214 21.2252 63.507 20.3164 63.6584 19.5969C63.8478 18.5366 64.0371 17.3249 64.5294 14.8635C65.7033 12.9323 66.915 11.2283 68.0889 11.1526C69.5278 11.0769 67.9753 16.3025 67.6723 17.855C67.3694 19.4076 68.2403 20.6193 69.9065 20.5436C71.2697 20.4678 72.8601 18.8396 74.1476 17.1734C74.2612 19.2182 75.435 20.0134 76.2302 19.9756C78.1614 19.7484 79.8276 18.5745 80.6607 16.8326C80.6985 18.8017 81.5695 19.3697 81.5695 19.3697C82.2511 19.8241 83.4628 19.5969 84.1823 19.1046C84.4473 18.8774 84.7124 18.6124 84.9396 18.3473L84.8639 18.5366C84.4473 19.4454 85.3561 19.7105 85.8484 18.9153C86.1513 18.4988 89.7108 11.6449 90.2031 10.8497C90.5439 11.0011 90.9226 11.0769 91.2634 11.0769C91.9071 11.039 91.7556 11.0011 92.1722 10.9633C92.513 10.9633 92.6644 11.2283 92.6644 11.5691C92.7023 12.0614 92.3236 12.8566 91.7556 13.9169C91.2634 14.9393 90.5439 16.151 90.506 17.022C90.506 18.1201 91.2255 19.6726 93.081 19.5969C94.9365 19.5212 97.2085 16.7569 98.6095 14.6742C98.6095 15.2801 98.6095 15.886 98.6853 16.454C98.9503 17.7414 100.124 18.6502 101.412 18.5745C102.32 18.4988 103.911 16.9462 105.274 15.2801C105.312 17.5142 106.524 18.3852 107.395 18.3473C109.326 18.1201 110.954 16.9462 111.825 15.2043C111.863 17.1734 112.734 17.7414 112.734 17.7414C113.415 18.1958 114.627 17.9686 115.347 17.4764C116.407 16.719 118.603 13.3489 119.55 11.8721C120.459 10.4331 119.701 9.86512 119.133 10.6225ZM53.8888 19.5212C52.7528 19.5969 52.412 18.2716 52.3363 16.9462C52.3363 16.2268 52.412 15.4694 52.6013 14.7878C53.2072 15.9995 54.2675 16.8705 55.6685 16.7948C55.9336 16.7948 56.1608 16.7569 56.4259 16.719C55.9715 18.0822 55.2141 19.4454 53.8888 19.5212ZM56.956 13.9169C56.956 14.2955 56.9181 14.6742 56.8045 15.0907C56.6152 15.1286 56.4259 15.1665 56.2365 15.1665C53.9645 15.2801 53.8131 13.7654 53.7373 12.5915C53.7373 12.4022 53.7373 12.2129 53.7752 12.0614C54.3053 11.3419 54.9112 10.9254 55.5928 10.8875C56.5016 10.8118 57.0317 12.5158 56.956 13.9169ZM80.5092 14.9393C80.3956 15.5073 78.1614 18.4988 76.9118 17.3628C76.4574 16.9462 76.4574 14.2955 77.4798 12.3643C78.6537 10.0166 79.714 9.18352 80.1305 9.44859C80.1305 9.44859 80.5471 9.75152 80.0548 10.9254C80.4335 10.8497 80.7743 10.7361 81.1151 10.6225C81.3801 10.5089 80.8121 13.4625 80.5092 14.9393ZM111.674 13.311C111.56 13.879 109.326 16.8705 108.076 15.7345C107.622 15.3179 107.622 12.6673 108.644 10.7361C109.818 8.38831 110.878 7.55524 111.295 7.82031C111.295 7.82031 111.711 8.12325 111.219 9.29712C111.598 9.22139 111.939 9.10778 112.279 8.99418C112.582 8.88058 111.977 11.8342 111.674 13.311Z" fill="#FEEE72"/>
<path d="M46.9973 30.8812C47.0352 31.9036 46.2021 32.7366 45.1797 32.7745C44.1573 32.8124 43.3243 31.9793 43.2864 30.9569C43.2485 29.9345 44.0816 29.1014 45.104 29.0636H45.1419C46.1264 29.0257 46.9216 29.7452 46.9973 30.7297C46.9973 30.7676 47.0352 30.8433 46.9973 30.8812ZM46.3157 30.8812C46.2779 30.2374 45.7477 29.783 45.104 29.8209C44.4603 29.8588 44.0059 30.3889 44.0437 31.0326C44.0816 31.6385 44.5739 32.0929 45.1797 32.0929C45.8235 32.0929 46.3157 31.6006 46.3157 30.9569C46.3157 30.919 46.3157 30.919 46.3157 30.8812Z" fill="white"/>
<path d="M49.6098 31.8649H48.2087L47.9058 32.6222H47.1484L48.6631 29.0627H49.1932L50.6701 32.6222H49.9506L49.6098 31.8649ZM49.4204 31.2969L48.9282 30.0473L48.4359 31.2969H49.4204Z" fill="white"/>
<path d="M52.9048 29.9337C52.7912 29.7443 52.564 29.6307 52.3368 29.6307C51.9582 29.6307 51.8446 29.8579 51.8446 30.0473C51.8446 30.123 51.8824 30.2366 51.9582 30.2745C52.0718 30.3502 52.2232 30.426 52.3747 30.4638C52.6398 30.5396 52.867 30.6532 53.0942 30.8046C53.2835 30.994 53.3971 31.259 53.3971 31.5241C53.3971 32.1678 52.9048 32.6601 52.2611 32.6601C52.2232 32.6601 52.2232 32.6601 52.1854 32.6601C51.6931 32.6601 51.2387 32.395 50.9736 32.0164L51.428 31.5998C51.5795 31.8649 51.8446 32.0542 52.1475 32.0542C52.4126 32.0921 52.6398 31.9028 52.6776 31.6377V31.5998C52.6776 31.4862 52.6398 31.3726 52.5262 31.2969C52.3747 31.1833 52.1854 31.1076 51.996 31.0318C51.7688 30.9561 51.5795 30.8804 51.428 30.7289C51.2387 30.5774 51.1251 30.3124 51.163 30.0852C51.163 29.5171 51.5795 29.0627 52.1475 29.0627C52.1854 29.0627 52.2232 29.0627 52.2611 29.0627C52.6398 29.0627 52.9806 29.2142 53.2456 29.4793L52.9048 29.9337Z" fill="white"/>
<path d="M54.7597 29.1385V32.6222H54.0781V29.1385H54.7597Z" fill="white"/>
<path d="M57.4107 29.9337C57.2971 29.7443 57.0699 29.6307 56.8427 29.6307C56.464 29.6307 56.3504 29.8579 56.3504 30.0473C56.3504 30.123 56.3883 30.2366 56.464 30.2745C56.5776 30.3502 56.7291 30.426 56.8806 30.4638C57.1456 30.5396 57.3728 30.6532 57.6 30.8046C57.7894 30.994 57.903 31.259 57.903 31.5241C57.903 32.1678 57.4107 32.6601 56.767 32.6601C56.7291 32.6601 56.7291 32.6601 56.6912 32.6601C56.199 32.6601 55.7446 32.395 55.4795 32.0164L55.9339 31.5998C56.0854 31.8649 56.3504 32.0542 56.6534 32.0542C56.9184 32.0921 57.1456 31.9028 57.1835 31.6377V31.5998C57.1835 31.4862 57.1456 31.3726 57.032 31.2969C56.8806 31.1833 56.6912 31.1076 56.5019 31.0318C56.2747 30.9561 56.0854 30.8804 55.9339 30.7289C55.7446 30.5774 55.631 30.3124 55.6688 30.0852C55.6688 29.5171 56.0854 29.0627 56.6534 29.0627C56.6912 29.0627 56.7291 29.0627 56.767 29.0627C57.1456 29.0627 57.4864 29.2142 57.7515 29.4793L57.4107 29.9337Z" fill="white"/>
<path d="M62.4471 32.4705C62.182 32.622 61.8791 32.6977 61.5762 32.6599C61.1218 32.6977 60.6295 32.5084 60.2887 32.1676C59.91 31.8268 59.7207 31.3345 59.7207 30.8422C59.7207 30.35 59.91 29.8577 60.2887 29.479C60.6295 29.1761 61.0839 28.9868 61.5762 29.0246C61.8791 29.0246 62.182 29.1004 62.4093 29.2518V30.047C62.182 29.8198 61.8791 29.6684 61.5762 29.6684C60.9324 29.7062 60.4023 30.2742 60.4402 30.9558C60.478 31.5617 60.9703 32.054 61.5762 32.0919C61.8791 32.0919 62.182 31.9404 62.3714 31.7132L62.4471 32.4705Z" fill="white"/>
<path d="M65.2487 31.8647H63.8476L63.5447 32.5841H62.8252L64.3399 29.0247H64.87L66.3468 32.5841H65.6273L65.2487 31.8647ZM65.0593 31.2967L64.5671 30.0471L64.0748 31.2967H65.0593Z" fill="white"/>
<path d="M68.5435 29.9337C68.4299 29.7443 68.2027 29.6307 67.9755 29.6307C67.5968 29.6307 67.4832 29.8579 67.4832 30.0473C67.4832 30.123 67.5211 30.2366 67.5968 30.2745C67.7104 30.3502 67.8619 30.426 68.0134 30.4638C68.2785 30.5396 68.5056 30.6532 68.7328 30.8046C68.9222 30.994 69.0358 31.259 69.0358 31.5241C69.0358 32.1678 68.5435 32.6601 67.8998 32.6601C67.8619 32.6601 67.8619 32.6601 67.824 32.6601C67.3318 32.6601 66.8774 32.395 66.6123 32.0164L67.0667 31.5998C67.2182 31.8649 67.4832 32.0542 67.7862 32.0542C68.0512 32.0921 68.2784 31.9028 68.3163 31.6377V31.5998C68.3163 31.4862 68.2784 31.3726 68.1648 31.2969C68.0134 31.1833 67.824 31.1076 67.6347 31.0318C67.4075 30.9561 67.2182 30.8804 67.0667 30.7289C66.8774 30.5774 66.7638 30.3124 66.8016 30.0852C66.8016 29.5171 67.2182 29.0627 67.7862 29.0627C67.824 29.0627 67.8619 29.0627 67.8998 29.0627C68.2784 29.0627 68.6192 29.2142 68.8843 29.4793L68.5435 29.9337Z" fill="white"/>
<path d="M70.3984 29.1385V32.6222H69.7168V29.1385H70.3984Z" fill="white"/>
<path d="M71.3457 32.6222V29.0627H71.8001L73.9206 31.4862V29.1385H74.6023V32.6601H74.1479L72.0273 30.2366V32.6222H71.3457Z" fill="white"/>
<path d="M79.0325 30.8801C79.0704 31.9025 78.2373 32.7356 77.2149 32.7734C76.1925 32.8113 75.3594 31.9782 75.3216 30.9558C75.2837 29.9334 76.1168 29.1004 77.1392 29.0625H77.177C78.1616 29.0246 78.9568 29.7441 79.0325 30.7286C79.0325 30.7665 79.0325 30.8422 79.0325 30.8801ZM78.3509 30.8801C78.313 30.2364 77.7829 29.782 77.1392 29.8198C76.4954 29.8577 76.041 30.3878 76.0789 31.0316C76.1168 31.6374 76.609 32.0918 77.2149 32.0918C77.8586 32.0918 78.3509 31.5996 78.3509 30.9558C78.3509 30.918 78.3509 30.918 78.3509 30.8801Z" fill="white"/>
</svg>
