<svg xmlns="http://www.w3.org/2000/svg" fill="none" width="237" height="105" viewBox="0 0 237 105"><g fill-rule="evenodd" clip-rule="evenodd" opacity=".15"><path d="m235.693 76.622-54.513-1.326 8.263-13.874-24.006-6.277c-3.292-20.2-39.408-37.648-80.48-36.17-55.61 2-68.252 20.017-64.922 36.861 1.852 9.37 10.613 25.458 27.341 35.837 30.272 18.783 94.32 12.222 114.573-21.139l10.232-.2-9.582 13.717 73.094-7.429Z" fill="#fff"/><path d="m235.693 76.622-54.513-1.326 8.263-13.874-24.006-6.277c-3.292-20.2-39.408-37.648-80.48-36.17-55.61 2-68.252 20.017-64.922 36.861 1.852 9.37 10.613 25.458 27.341 35.837 30.272 18.783 94.32 12.222 114.573-21.139l10.232-.2-9.582 13.717 73.094-7.429Z" fill="#01001F"/></g><path d="m235.693 65.893-54.513-1.327 8.263-13.874-24.006-6.276c-3.292-20.2-39.408-37.648-80.48-36.17-55.61 2-68.252 20.016-64.922 36.86 1.852 9.37 10.613 25.459 27.341 35.838 30.272 18.783 94.32 12.222 114.573-21.139l10.232-.201-9.582 13.718 73.094-7.43Z" fill="#fff" fill-rule="evenodd" clip-rule="evenodd"/><path d="M170.589 44.503c1.161 11.238-7.037 21.292-18.31 22.456-11.272 1.164-21.352-7.003-22.512-18.24-1.161-11.239 7.037-21.292 18.31-22.457 11.273-1.163 21.352 7.003 22.512 18.241ZM152.097 65.19c10.292-1.063 17.777-10.243 16.717-20.504-1.059-10.26-10.262-17.717-20.554-16.654-10.293 1.063-17.778 10.242-16.718 20.503 1.059 10.26 10.262 17.717 20.555 16.655Z" fill="#04005E" fill-rule="evenodd" clip-rule="evenodd"/><path d="M152.102 65.19c10.293-1.063 17.778-10.242 16.718-20.503-1.06-10.26-10.262-17.717-20.555-16.654-10.292 1.062-17.777 10.242-16.718 20.503 1.06 10.26 10.263 17.717 20.555 16.654Z" fill="url(#a)"/><path d="M150.997 54.573c4.411-.455 7.619-4.39 7.164-8.787-.454-4.397-4.398-7.593-8.809-7.137-4.411.455-7.619 4.39-7.165 8.787.455 4.397 4.399 7.593 8.81 7.137Z" fill="url(#b)"/><path d="M150.942 54.042c4.117-.425 7.111-4.096 6.687-8.2-.424-4.105-4.105-7.088-8.222-6.663-4.117.426-7.111 4.097-6.687 8.202.424 4.104 4.105 7.087 8.222 6.661Zm.055.531c4.41-.455 7.619-4.39 7.165-8.787-.454-4.397-4.399-7.593-8.81-7.137-4.41.455-7.619 4.39-7.165 8.787.455 4.397 4.399 7.593 8.81 7.137Z" fill="url(#c)" fill-rule="evenodd" clip-rule="evenodd"/><path d="M150.544 50.15a3.564 3.564 0 0 0 3.185-3.906 3.564 3.564 0 0 0-3.916-3.172 3.563 3.563 0 0 0-3.184 3.905 3.563 3.563 0 0 0 3.915 3.172Z" fill="url(#d)"/><path d="M145.671 30.877c-8.606 2.62-13.476 11.79-10.878 20.483 2.598 8.693 11.681 13.617 20.287 10.998 8.607-2.618 13.477-11.789 10.879-20.482-2.599-8.693-11.682-13.617-20.288-10.999Zm-11.228 20.59c-2.657-8.89 2.323-18.266 11.122-20.943 8.8-2.678 18.087 2.357 20.744 11.246 2.657 8.888-2.323 18.264-11.123 20.942-8.799 2.678-18.087-2.357-20.743-11.246Z" fill="url(#e)" fill-rule="evenodd" clip-rule="evenodd"/><path d="M145.671 30.877c-8.606 2.62-13.476 11.79-10.878 20.483 2.598 8.693 11.681 13.617 20.287 10.998 8.607-2.618 13.477-11.789 10.879-20.482-2.599-8.693-11.682-13.617-20.288-10.999Zm-11.228 20.59c-2.657-8.89 2.323-18.266 11.122-20.943 8.8-2.678 18.087 2.357 20.744 11.246 2.657 8.888-2.323 18.264-11.123 20.942-8.799 2.678-18.087-2.357-20.743-11.246Z" fill="url(#f)" fill-rule="evenodd" clip-rule="evenodd"/><path d="M146.094 32.292c-7.833 2.384-12.265 10.73-9.9 18.641 2.364 7.912 10.631 12.394 18.464 10.01 7.832-2.383 12.265-10.729 9.9-18.64-2.365-7.912-10.631-12.394-18.464-10.01ZM135.843 51.04c-2.423-8.107 2.119-16.66 10.145-19.101 8.026-2.443 16.497 2.15 18.92 10.257 2.423 8.107-2.119 16.659-10.145 19.101s-16.496-2.15-18.92-10.257Z" fill="url(#g)" fill-rule="evenodd" clip-rule="evenodd"/><path d="M146.094 32.292c-7.833 2.384-12.265 10.73-9.9 18.641 2.364 7.912 10.631 12.394 18.464 10.01 7.832-2.383 12.265-10.729 9.9-18.64-2.365-7.912-10.631-12.394-18.464-10.01ZM135.843 51.04c-2.423-8.107 2.119-16.66 10.145-19.101 8.026-2.443 16.497 2.15 18.92 10.257 2.423 8.107-2.119 16.659-10.145 19.101s-16.496-2.15-18.92-10.257Z" fill="url(#h)" fill-rule="evenodd" clip-rule="evenodd"/><path d="M146.517 33.707c-7.059 2.148-11.054 9.67-8.923 16.8 2.132 7.13 9.582 11.17 16.641 9.022 7.059-2.148 11.053-9.67 8.922-16.8-2.131-7.13-9.581-11.17-16.64-9.022Zm-9.273 16.907c-2.189-7.326 1.915-15.054 9.167-17.26 7.253-2.207 14.907 1.942 17.096 9.268 2.19 7.326-1.914 15.053-9.167 17.26-7.252 2.207-14.906-1.943-17.096-9.268Z" fill="url(#i)" fill-rule="evenodd" clip-rule="evenodd"/><path d="M146.517 33.707c-7.059 2.148-11.054 9.67-8.923 16.8 2.132 7.13 9.582 11.17 16.641 9.022 7.059-2.148 11.053-9.67 8.922-16.8-2.131-7.13-9.581-11.17-16.64-9.022Zm-9.273 16.907c-2.189-7.326 1.915-15.054 9.167-17.26 7.253-2.207 14.907 1.942 17.096 9.268 2.19 7.326-1.914 15.053-9.167 17.26-7.252 2.207-14.906-1.943-17.096-9.268Z" fill="url(#j)" fill-rule="evenodd" clip-rule="evenodd"/><path d="M146.94 35.122c-6.286 1.913-9.843 8.61-7.945 14.959 1.898 6.349 8.531 9.945 14.817 8.033 6.285-1.913 9.842-8.61 7.945-14.96-1.898-6.348-8.532-9.945-14.817-8.032Zm-8.295 15.065c-1.956-6.544 1.71-13.447 8.189-15.419 6.479-1.971 13.317 1.736 15.273 8.28 1.956 6.545-1.711 13.448-8.19 15.42-6.478 1.97-13.316-1.736-15.272-8.28Z" fill="url(#k)" fill-rule="evenodd" clip-rule="evenodd"/><path d="M146.94 35.122c-6.286 1.913-9.843 8.61-7.945 14.959 1.898 6.349 8.531 9.945 14.817 8.033 6.285-1.913 9.842-8.61 7.945-14.96-1.898-6.348-8.532-9.945-14.817-8.032Zm-8.295 15.065c-1.956-6.544 1.71-13.447 8.189-15.419 6.479-1.971 13.317 1.736 15.273 8.28 1.956 6.545-1.711 13.448-8.19 15.42-6.478 1.97-13.316-1.736-15.272-8.28Z" fill="url(#l)" fill-rule="evenodd" clip-rule="evenodd"/><path d="M147.363 36.537c-5.512 1.677-8.631 7.55-6.967 13.118 1.664 5.567 7.481 8.721 12.993 7.044 5.512-1.677 8.631-7.55 6.967-13.118-1.664-5.568-7.482-8.721-12.993-7.044Zm-7.317 13.224c-1.723-5.763 1.506-11.842 7.211-13.578 5.705-1.736 11.727 1.529 13.449 7.291 1.722 5.763-1.506 11.843-7.211 13.579-5.706 1.736-11.727-1.529-13.449-7.292Z" fill="url(#m)" fill-rule="evenodd" clip-rule="evenodd"/><path d="M147.363 36.537c-5.512 1.677-8.631 7.55-6.967 13.118 1.664 5.567 7.481 8.721 12.993 7.044 5.512-1.677 8.631-7.55 6.967-13.118-1.664-5.568-7.482-8.721-12.993-7.044Zm-7.317 13.224c-1.723-5.763 1.506-11.842 7.211-13.578 5.705-1.736 11.727 1.529 13.449 7.291 1.722 5.763-1.506 11.843-7.211 13.579-5.706 1.736-11.727-1.529-13.449-7.292Z" fill="url(#n)" fill-rule="evenodd" clip-rule="evenodd"/><path d="M147.786 37.952c-4.739 1.442-7.42 6.49-5.99 11.276 1.431 4.787 6.432 7.498 11.17 6.056 4.738-1.442 7.42-6.49 5.989-11.277-1.43-4.786-6.431-7.497-11.169-6.055Zm-6.34 11.383c-1.489-4.982 1.302-10.236 6.234-11.737 4.931-1.5 10.136 1.321 11.625 6.303 1.489 4.981-1.302 10.236-6.233 11.737-4.932 1.5-10.137-1.322-11.626-6.303Z" fill="url(#o)" fill-rule="evenodd" clip-rule="evenodd"/><path d="M147.786 37.952c-4.739 1.442-7.42 6.49-5.99 11.276 1.431 4.787 6.432 7.498 11.17 6.056 4.738-1.442 7.42-6.49 5.989-11.277-1.43-4.786-6.431-7.497-11.169-6.055Zm-6.34 11.383c-1.489-4.982 1.302-10.236 6.234-11.737 4.931-1.5 10.136 1.321 11.625 6.303 1.489 4.981-1.302 10.236-6.233 11.737-4.932 1.5-10.137-1.322-11.626-6.303Z" fill="url(#p)" fill-rule="evenodd" clip-rule="evenodd"/><path d="M150.417 48.91a2.317 2.317 0 0 0 2.07-2.538 2.317 2.317 0 0 0-2.545-2.062 2.316 2.316 0 0 0-2.07 2.538 2.316 2.316 0 0 0 2.545 2.062Z" fill="url(#q)"/><path d="M150.59 47.998a1.336 1.336 0 0 0 1.194-1.465 1.336 1.336 0 0 0-1.468-1.19 1.336 1.336 0 0 0-1.194 1.465 1.336 1.336 0 0 0 1.468 1.19Z" fill="#fff"/><path d="M143.65 51.308a7.993 7.993 0 0 1-.978-3.094c-.455-4.409 2.758-8.353 7.178-8.81a8.046 8.046 0 0 1 7.366 3.307 8.047 8.047 0 0 0-7.849-4.064c-4.419.456-7.633 4.4-7.177 8.81a7.976 7.976 0 0 0 1.46 3.851Z" fill="#fff"/><path d="M152.011 64.305c9.802-1.012 16.931-9.754 15.922-19.527-1.009-9.772-9.774-16.873-19.576-15.86-9.803 1.011-16.932 9.754-15.923 19.526 1.009 9.772 9.774 16.873 19.577 15.861Zm.091.885c10.293-1.063 17.778-10.242 16.718-20.503-1.06-10.26-10.262-17.717-20.555-16.654-10.292 1.062-17.777 10.242-16.718 20.503 1.06 10.26 10.263 17.717 20.555 16.654Z" fill="url(#r)" fill-rule="evenodd" clip-rule="evenodd"/><path d="M166.216 36.93a18.74 18.74 0 0 0-17.522-8.227c-10.293 1.063-17.778 10.243-16.718 20.504a18.56 18.56 0 0 0 2.603 7.758 18.562 18.562 0 0 1-3.032-8.43c-1.059-10.26 6.426-19.44 16.718-20.502a18.742 18.742 0 0 1 17.951 8.896Z" fill="#E5E3FF"/><path d="M165.742 32.294a.267.267 0 0 0-.358-.223l-6.996 2.55a.267.267 0 0 0-.175.277l.795 7.685c.008.074-.076.126-.141.09a2.48 2.48 0 0 0-1.44-.285c-1.355.14-2.342 1.34-2.204 2.68.138 1.34 1.35 2.313 2.706 2.174 1.356-.14 2.343-1.34 2.205-2.681l-.008-.07h.001l-.746-7.212a.179.179 0 0 1 .116-.185l5.394-1.965a.177.177 0 0 1 .238.149l.489 4.73c.008.075-.074.126-.141.09a2.474 2.474 0 0 0-1.438-.285c-1.357.14-2.343 1.34-2.205 2.68.139 1.34 1.35 2.314 2.706 2.174 1.356-.14 2.343-1.34 2.204-2.68l-.003-.033a.465.465 0 0 0-.005-.037h.001l-.995-9.623Z" fill="#FF00F5"/><path d="M160.121 44.49h-.001l.009.07.006.07c.097 1.311-.879 2.472-2.212 2.61-1.355.14-2.567-.833-2.706-2.173-.138-1.34.85-2.54 2.205-2.68a2.5 2.5 0 0 1 1.44.284c.065.036.148-.015.14-.09l-.794-7.684a.266.266 0 0 1 .174-.278l6.997-2.55c.163-.06.34.05.358.223l.994 9.623h-.001a.247.247 0 0 1 .005.038l.004.032.006.07c.098 1.312-.879 2.473-2.211 2.61-1.356.14-2.567-.833-2.705-2.173-.139-1.34.848-2.54 2.204-2.68a2.5 2.5 0 0 1 .665.02l.039.006a2.489 2.489 0 0 1 .735.259c.066.035.148-.016.14-.09l-.488-4.73a.179.179 0 0 0-.239-.15l-5.394 1.965a.18.18 0 0 0-.116.186l.746 7.212Zm4.483-5.567-.274-2.647-4.011 1.462.781 7.545c-.219 1.477-1.528 2.681-3.086 2.842-1.838.19-3.494-1.13-3.683-2.967-.19-1.836 1.161-3.467 2.999-3.657.225-.023.447-.023.663-.003l-.672-6.51a1.157 1.157 0 0 1 .755-1.205l6.997-2.549a1.16 1.16 0 0 1 1.552.967l1.086 10.507c-.22 1.477-1.529 2.681-3.085 2.842-1.84.19-3.496-1.13-3.685-2.966-.19-1.837 1.161-3.467 3.001-3.657.224-.023.445-.024.662-.004Z" fill="#04005E" fill-rule="evenodd" clip-rule="evenodd"/><path d="M158.362 34.631a.267.267 0 0 0-.151.269l.8 7.74.031.016c.065.036.148-.016.141-.09l-.821-7.935Zm-3.047 9.485c-.093.3-.127.622-.093.952.139 1.34 1.351 2.314 2.706 2.174 1.279-.132 2.231-1.208 2.218-2.455a2.47 2.47 0 0 1-2.113 1.729c-1.356.14-2.567-.834-2.705-2.174a2.16 2.16 0 0 1-.013-.226Zm4.153-7.015 5.423-1.973a.179.179 0 0 1 .239.149l.494 4.785.032.017c.065.036.148-.016.14-.09l-.562-5.438a.179.179 0 0 0-.239-.149l-5.465 1.988a.179.179 0 0 0-.117.186l.055.525Zm2.455 4.44c.001.075.005.15.013.226.138 1.34 1.35 2.313 2.705 2.173a2.467 2.467 0 0 0 2.113-1.728 2.457 2.457 0 0 1-2.217 2.454c-1.356.14-2.567-.833-2.705-2.173-.034-.33 0-.653.091-.952Z" fill="#FFD0FE"/><path d="m98.344 70.468-.226-39.005 10.786-.062.088 15.447 14.277-.082-.088-15.447 10.787-.062.225 38.078-10.785.062-.088-13.98-12.41.081.088 14.908-12.654.062Z" fill="#04005E"/><path d="m103.299 47.161-10.691 1.104c-.168-.88-.453-1.666-.856-2.356a5.49 5.49 0 0 0-1.52-1.73 5.574 5.574 0 0 0-2.154-1.009c-.827-.21-1.745-.262-2.756-.158-1.77.183-3.222.77-4.359 1.76-1.124.988-1.919 2.321-2.384 3.999-.453 1.676-.562 3.645-.329 5.904.246 2.388.769 4.355 1.567 5.902.81 1.533 1.863 2.644 3.16 3.33 1.296.676 2.797.925 4.503.749.973-.1 1.833-.312 2.579-.632a6.161 6.161 0 0 0 1.897-1.294 5.647 5.647 0 0 0 1.209-1.837 6.87 6.87 0 0 0 .505-2.343l10.699-1.028c.044 1.664-.244 3.394-.863 5.19-.62 1.784-1.589 3.475-2.905 5.074-1.305 1.585-2.987 2.926-5.044 4.024-2.058 1.098-4.509 1.793-7.353 2.087-3.563.368-6.84-.07-9.829-1.314-2.977-1.245-5.44-3.275-7.392-6.09-1.938-2.815-3.13-6.38-3.576-10.698-.448-4.342.008-8.085 1.37-11.228 1.36-3.156 3.376-5.642 6.05-7.458 2.672-1.829 5.752-2.923 9.24-3.284 2.451-.253 4.742-.15 6.871.311 2.13.46 4.038 1.258 5.726 2.392 1.687 1.122 3.102 2.574 4.243 4.355 1.142 1.781 1.94 3.874 2.392 6.278Z" fill="#04005E"/><path d="m103.299 47.161-10.691 1.104c-.168-.88-.453-1.666-.856-2.356a5.49 5.49 0 0 0-1.52-1.73 5.574 5.574 0 0 0-2.154-1.009c-.827-.21-1.745-.262-2.756-.158-1.77.183-3.222.77-4.359 1.76-1.124.988-1.919 2.321-2.384 3.999-.453 1.676-.562 3.645-.329 5.904.246 2.388.769 4.355 1.567 5.902.81 1.533 1.863 2.644 3.16 3.33 1.296.676 2.797.925 4.503.749.973-.1 1.833-.312 2.579-.632a6.161 6.161 0 0 0 1.897-1.294 5.647 5.647 0 0 0 1.209-1.837 6.87 6.87 0 0 0 .505-2.343l10.699-1.028c.044 1.664-.244 3.394-.863 5.19-.62 1.784-1.589 3.475-2.905 5.074-1.305 1.585-2.987 2.926-5.044 4.024-2.058 1.098-4.509 1.793-7.353 2.087-3.563.368-6.84-.07-9.829-1.314-2.977-1.245-5.44-3.275-7.392-6.09-1.938-2.815-3.13-6.38-3.576-10.698-.448-4.342.008-8.085 1.37-11.228 1.36-3.156 3.376-5.642 6.05-7.458 2.672-1.829 5.752-2.923 9.24-3.284 2.451-.253 4.742-.15 6.871.311 2.13.46 4.038 1.258 5.726 2.392 1.687 1.122 3.102 2.574 4.243 4.355 1.142 1.781 1.94 3.874 2.392 6.278Z" stroke="#04005E" stroke-width=".116"/><path d="m104.626 64.575.005.925.925-.005 9.402-.054.925-.005-.005-.926-.079-13.736 10.595-.061.079 13.737.006.925.925-.005 9.401-.054.925-.006-.004-.925-.215-37.534-.006-.926-.925.006-9.402.053-.926.006.006.925.078 13.737-10.594.06-.08-13.736-.004-.925-.926.005-9.402.054-.925.005.006.925.215 37.535Z" fill="url(#s)" stroke="#04005E" stroke-width="1.85"/><path d="m107.013 44.045.993-.102-.177-.983c-.451-2.5-1.23-4.709-2.352-6.612-1.115-1.891-2.499-3.454-4.154-4.672-1.651-1.227-3.51-2.094-5.569-2.603-2.06-.509-4.257-.637-6.582-.397-3.33.344-6.287 1.467-8.846 3.378-2.576 1.909-4.49 4.529-5.755 7.818-1.277 3.304-1.66 7.2-1.2 11.654.457 4.427 1.61 8.154 3.497 11.141l.001.002c1.888 2.966 4.28 5.149 7.182 6.506h.001v.001c2.9 1.35 6.06 1.84 9.456 1.489 2.692-.278 5.05-.983 7.049-2.14 1.963-1.136 3.58-2.544 4.837-4.228 1.244-1.668 2.161-3.445 2.743-5.332v-.003c.574-1.877.837-3.708.778-5.488l-.033-.983-.98.093-9.74.929-.81.077-.027.813a6.449 6.449 0 0 1-.38 2.048l-.002.003v.003a4.656 4.656 0 0 1-.905 1.529c-.382.426-.853.78-1.424 1.057-.566.262-1.243.442-2.043.524-1.385.143-2.553-.094-3.548-.669-.996-.587-1.853-1.551-2.544-2.966-.682-1.431-1.157-3.293-1.397-5.615-.226-2.192-.142-4.05.224-5.596.376-1.54 1.014-2.698 1.876-3.53.858-.818 1.974-1.32 3.41-1.468.823-.084 1.539-.026 2.162.153l.006.002.007.002a4.072 4.072 0 0 1 1.613.84l.008.007.008.007c.47.384.859.865 1.167 1.457l.003.005.003.006c.322.598.56 1.293.707 2.093l.153.843.852-.088 9.732-1.005Z" fill="url(#t)" stroke="#04005E" stroke-width="1.85"/><path d="M77.732 59.963c.657 3.14 5.526 9.468 14.035 9.468" stroke="url(#u)" stroke-width="1.388"/><path d="M89.47 29.575c12.448-1.052 16.981 8.691 17.443 13.546l-.978.101c-2.076-10.54-9.11-13.36-16.9-12.788-8.814 1.561-11.923 7.258-12.632 9.966l-.83-.728c2.935-7.604 10.49-9.88 13.897-10.097Z" fill="url(#v)"/><path d="m107.988 53.507-.801.079C106.3 65.827 96.859 69.003 92.559 69.02l.084.805c12.251-.707 15.607-11.123 15.345-16.319Z" fill="url(#w)"/><path d="m98.105 54.425 9.888-.923-.877.896-8.934.775-.078-.748Z" fill="url(#x)"/><path d="M79.211 34.357c-3.832 3.419-5.037 9.764-5.16 12.509l.544 1.339c1.057-7.783 3.915-12.012 5.211-13.153l-.595-.695Z" fill="url(#y)"/><path d="m100.996 27.447 2.912.048.131 5.219-2.701-.826-.342-4.44Z" fill="#04005E"/><path d="m47.42 75.312 6.724-38.284 14.43-.989 11.53 36.5-10.978 1.133-2.102-6.444-7.619.53-1.13 6.734-10.854.82ZM59.262 61.29l6.344-.266-4.231-15.75-2.113 16.016Z" fill="url(#z)" fill-rule="evenodd" clip-rule="evenodd"/><path d="m57.094 63.084 3.204-23.463 1.406-.056 6.212 23.06-10.822.459Zm9.919-1.08-6.004-22.29-3.097 22.675 9.101-.386Z" fill="url(#A)" fill-rule="evenodd" clip-rule="evenodd"/><path d="M78.9 72.693 68.84 40.812l1.112-.434L80.01 72.259l-1.11.434Z" fill="url(#B)" fill-opacity=".3" fill-rule="evenodd" clip-rule="evenodd"/><path d="m58.135 61.053 2.122-15.996 1.126.277-2.123 15.997-1.125-.278Z" fill="url(#C)" fill-rule="evenodd" clip-rule="evenodd"/><path d="m65.535 60.867-4.26-15.73 1.153-.11 4.26 15.73-1.153.11Z" fill="url(#D)" fill-opacity=".3" fill-rule="evenodd" clip-rule="evenodd"/><path d="m59.711 66.127-1.414 8.403-1.18-.185 1.414-8.403 1.18.185Z" fill="url(#E)" fill-opacity=".5" fill-rule="evenodd" clip-rule="evenodd"/><path d="m47.708 73.684-.286 1.627 10.854-.82.273-1.625-10.841.819Z" fill="url(#F)"/><path d="m59.408 67.757 7.614-.53 2.103 6.444 10.977-1.133-.489-1.547-10.21 1.054-2.103-6.444-7.619.53-.273 1.626Z" fill="url(#G)"/><path d="m67.024 67.228 2.102 6.444 10.978-1.133-11.53-36.5-14.43.99-6.723 38.283 10.853-.82 1.131-6.734 7.62-.53Zm-9.789 6.24 1.132-6.74 9.52-.662 2.09 6.411 8.59-.886L67.703 37.2l-12.528.859-6.33 36.041 8.39-.634Z" fill="url(#H)" fill-rule="evenodd" clip-rule="evenodd"/><path d="m44.566 77.733 7.51-42.768 18.235-1.25 12.863 40.72L67.42 76.06l-2.124-6.509-3.819.266-1.13 6.722-15.781 1.193ZM59.4 67.758l7.619-.53 2.102 6.444L80.1 72.538l-5.766-18.25-5.765-18.25-14.43.99-6.723 38.282 10.854-.82 1.13-6.733Zm6.2-6.734-4.231-15.75-2.113 16.016 6.343-.266Zm-3.629-2.047.621-.026-.414-1.542-.207 1.568Z" fill="#04005E" fill-rule="evenodd" clip-rule="evenodd"/><path d="m61.732 60.167 2.653-.126-1.744-6.838-.91 6.964Z" fill="#fff" fill-rule="evenodd" clip-rule="evenodd"/><path d="m65.151 54.869 1.879 7.138-9.152.42.649-4.52 1.184.161-.46 3.196 6.284-.288-1.544-5.865 1.16-.242Z" fill="url(#I)" fill-rule="evenodd" clip-rule="evenodd"/><path d="m52.365 32.561.012.115.115-.012 4.47-.461.116-.012-.012-.115-.543-5.262 1.363-.14 3.407 5.02.04.057.068-.007 4.856-.501.195-.02-.111-.161-3.902-5.628a4.896 4.896 0 0 0 1.77-1.918c.454-.879.617-1.913.495-3.097-.122-1.173-.485-2.16-1.095-2.954-.609-.793-1.406-1.366-2.387-1.719-.982-.352-2.092-.462-3.328-.335l-7.108.734-.115.012.012.115 1.682 16.289Zm5.24-9.564-1.461.151-.384-3.715 1.461-.15c.516-.054.956-.028 1.323.072h.002a1.6 1.6 0 0 1 .867.526l.002.001c.214.248.349.592.395 1.042.046.445-.016.804-.175 1.085h-.001c-.155.283-.4.507-.743.669-.342.159-.77.266-1.286.32Zm10.763 7.6.001.001 3.65-.857c.19-.38.264-.79.225-1.225v-.002c-.072-.636-.373-1.158-.897-1.558-.516-.4-1.087-.571-1.708-.507a2.35 2.35 0 0 0-1.61.85 2.19 2.19 0 0 0-.518 1.705c.062.651.349 1.184.857 1.593ZM28.886 19.42l-.113.023.023.113 3.34 15.916.024.113.114-.024 4.252-.892.113-.024-.024-.113-1.885-8.982 5.338 8.17.044.066.077-.016 2.564-.538.077-.016.013-.078 1.616-9.567 1.872 8.922.024.113.113-.024 4.252-.892.114-.024-.024-.113-3.34-15.915-.024-.114-.113.024-5.41 1.135-.075.016-.014.076-1.815 9.72-.036.007-5.569-8.17-.043-.064-.076.016-5.41 1.136Z" fill="#04005E" stroke="#04005E" stroke-width=".231"/><path d="M53.477 30.866v.694l.693.001 4.494.01h.694l.002-.693.01-4.711h.446l2.7 5.046.196.365.414.001 4.883.01 1.174.003-.565-1.03-3.016-5.504a5.385 5.385 0 0 0 1.662-1.629c.619-.939.91-2.066.912-3.344.003-1.265-.275-2.394-.864-3.356-.583-.951-1.402-1.678-2.436-2.177-1.032-.498-2.213-.737-3.525-.74l-7.145-.014-.694-.001-.001.694-.034 16.375Zm6.792-9.54-.89-.001.005-2.578.89.001c.47.001.83.066 1.1.172l.005.002.006.002c.256.095.418.229.526.39l.004.007.004.006c.101.145.182.375.18.746 0 .364-.08.587-.18.725l-.002.003-.002.004c-.105.15-.265.28-.524.37-.279.095-.647.152-1.122.151ZM69.77 31l.003.003.003.003a2.927 2.927 0 0 0 2.089.847 2.855 2.855 0 0 0 1.456-.387l.004-.002.004-.002a3.12 3.12 0 0 0 1.058-1.032c.286-.452.433-.955.44-1.495v-.015c-.005-.803-.319-1.501-.906-2.058-.573-.548-1.263-.84-2.045-.842a2.927 2.927 0 0 0-2.092.838l-.001.001-.002.001a2.767 2.767 0 0 0-.868 2.054A2.82 2.82 0 0 0 69.77 31Z" fill="url(#J)" stroke="#04005E" stroke-width="1.388"/><path d="m30.535 17.162-.679.143.143.679 3.34 15.915.142.679.68-.143 4.252-.892.679-.142-.143-.68-1.253-5.973 3.657 5.597.259.397.464-.098 2.564-.538.463-.097.078-.466 1.108-6.555 1.245 5.932.142.679.68-.143 4.251-.892.68-.142-.143-.68-3.34-15.915-.143-.679-.679.143-5.409 1.135-.454.095-.085.457-1.567 8.39-4.807-7.053-.261-.383-.455.095-5.409 1.135Z" fill="url(#K)" stroke="#04005E" stroke-miterlimit="16" stroke-width="1.388"/><path d="m30.76 18.307 5.065-1.047 6.283 9.06 2.02-10.847 5.008-1.04" stroke="url(#L)" stroke-width=".925"/><path d="m54.47 30.622.191-15.599 7.216.069" stroke="url(#M)" stroke-width=".925"/><path d="m129.704 18.11 7.402-9.459-3.909-3.943-3.493 13.401Zm3.022 2.654 6.229.461-.381-3.686-5.848 3.225ZM11.471 56.462l-7.058-.513 1.611 3.629 5.447-3.116Zm2.074-6.138L0 40.199l.846 8.193 12.7 1.932Zm37.093 33.714 3.365-3.836-6.233 1.562 2.868 2.274Zm44.761-66.44-4.164 5.525 1.06-6.72 3.104 1.195Zm-5.512-11.35-3.16 15.851-3.04-13.441 6.2-2.41Zm-11.168 10.44 4.537 7.811-7.413-4.927 2.876-2.883Z" fill="#04005E"/><path d="m32.111 43.695.96-.25a5.296 5.296 0 1 1 2.673 10.248l-.96.25-2.673-10.248Z" fill="#fff"/><path d="m43.488 78.84 2.688-14.869 2.321-.797-2.291 13.34 12.334-.53-.378 1.713-14.674 1.143Z" fill="#04005E" stroke="#04005E" stroke-width=".116"/><path d="m113.995 42.964-.025-14.88.002-1.105.754-.02.116 14.638 12.376-.057.005-14.592 9.35-.093.197 36.254-1.035.107-.309-35.08-7.083.092.156 14.459-14.504.277Z" fill="url(#N)"/><path d="m105.4 27.864 9.298-.03-.032-.87-9.355.037.089.863Z" fill="url(#O)"/><path d="m114.051 49.704.18 14.689.748-.077-.053-14.467-.875-.145Z" fill="url(#P)"/><path d="m127.256 49.78.16 14.529.748-.078-.053-14.585-.855.135Z" fill="url(#Q)"/><path d="m139.472 63.415-.634-2.202-1.36 2.15 1.994.052ZM24.634 81.167 16.756 46.1l15.156-3.404c2.606-.586 5.002-.584 7.187.004 2.185.588 4.03 1.691 5.533 3.308 1.504 1.617 2.535 3.67 3.095 6.158.564 2.511.492 4.812-.215 6.901-.696 2.087-1.938 3.853-3.727 5.298-1.777 1.442-4.002 2.464-6.677 3.065l-5.28 1.186 2.338 10.41-9.532 2.142Zm5.532-19.95 3.36-.754c1.12-.252 2.031-.66 2.732-1.225.71-.58 1.195-1.282 1.454-2.108.27-.828.294-1.738.07-2.732-.225-1.004-.634-1.811-1.228-2.422-.584-.624-1.319-1.034-2.203-1.231-.876-.211-1.874-.19-2.994.06l-3.36.755 2.169 9.658Z" fill="#04005E"/><path d="M24.634 81.167 16.756 46.1l15.156-3.404c2.606-.586 5.002-.584 7.187.004 2.185.588 4.03 1.691 5.533 3.308 1.504 1.617 2.535 3.67 3.095 6.158.564 2.511.492 4.812-.215 6.901-.696 2.087-1.938 3.853-3.727 5.298-1.777 1.442-4.002 2.464-6.677 3.065l-5.28 1.186 2.338 10.41-9.532 2.142Zm5.532-19.95 3.36-.754c1.12-.252 2.031-.66 2.732-1.225.71-.58 1.195-1.282 1.454-2.108.27-.828.294-1.738.07-2.732-.225-1.004-.634-1.811-1.228-2.422-.584-.624-1.319-1.034-2.203-1.231-.876-.211-1.874-.19-2.994.06l-3.36.755 2.169 9.658Z" stroke="#04005E" stroke-width=".105"/><path d="m34.192 68.913 5.634-1.266c3.046-.684 5.599-1.84 7.647-3.476 2.06-1.64 3.502-3.644 4.315-6.011.827-2.374.916-4.975.283-7.793-.627-2.792-1.8-5.108-3.528-6.933-1.724-1.822-3.845-3.06-6.353-3.715-2.51-.654-5.255-.64-8.227.027l-17.468 4.382-.308.07.07.307 8.185 38.592c1.197.468 10.007-.53 12.602-2.903l-2.852-11.281Z" fill="#04005E" stroke="#04005E" stroke-width=".631"/><path d="m37.434 77.73-2.447-10.892s2.9-.397 5.12-.866c3.393-.718 5.818-1.65 8.597-4.13 2.298-2.052 3.554-3.539 4.524-6.462.971-2.928.895-4.946.232-7.896-.656-2.922-1.986-5.566-3.794-7.51-1.802-1.938-4.229-3.381-6.835-4.083-2.612-.703-5.968-1.037-9.715-.42-5.272.867-9.297 1.737-16.993 5.792l.184.82 8.762 38.425.184.82.82-.184 10.725-2.41.82-.183-.184-.82Z" fill="url(#R)"/><path d="M17.968 42.318c4.04-2.031 14.09-5.992 21.86-5.424 1.08.078 2.108.256 3.078.516 6.005 1.61 9.817 6.38 10.51 10.503.496-6.916-6.743-14.743-18.489-13.125-11.035 1.52-13.893 3.203-18.139 5.705l-.839.493 2.02 1.332Z" fill="url(#S)" fill-rule="evenodd" clip-rule="evenodd"/><path d="M53.417 47.913c-.694-4.123-4.506-8.893-10.51-10.503 3.963 1.389 8.524 5.679 9.301 11.324.805 5.84-1.14 9.78-7.15 14.225l.684 1.344s7.73-5.932 8.024-12.823c.101-2.362-.267-2.723-.35-3.567Z" fill="url(#T)"/><path d="m17.968 42.318-2.019-1.332 9.143 40.253 12.5-2.671-2.887-11.596-1.496-1.729 2.495 11.918c-2.16.756-7.937 1.777-9.365 1.37l-8.37-36.213Z" fill="url(#U)"/><path d="m45.742 64.303-.683-1.344c-1.686 1.069-5.716 2.284-11.85 2.284l1.496 1.729 11.037-2.669Z" fill="url(#V)"/><path d="m37.67 77.697-2.448-10.893s3.053-.19 5.274-.659c3.392-.717 5.576-1.629 8.355-4.109 2.298-2.051 3.641-3.788 4.611-6.712 1.18-3.557.592-6.426.188-8.226-.656-2.922-2.091-5.26-3.9-7.204a13.942 13.942 0 0 0-6.656-4.014c-2.611-.703-6.23-1.027-9.976-.41-5.273.867-9.125 1.83-16.84 5.785l8.793 39.252c2.355.791 12.023-1.014 12.598-2.81Z" stroke="#04005E" stroke-width="2.07"/><path d="m34.695 43.408-5.497 1.434 3.095 12.96c.454 0 2.501.152 6.337-1.097 3.835-1.25 5.682-4.568 4.857-8.077-.825-3.51-5.283-6.045-8.792-5.22Zm-6.58.645 3.596 14.545s2.896.316 7.358-1.101 6.527-4.821 5.49-9.227c-1.036-4.406-5.865-7.267-10.272-6.23l-6.172 2.013Z" fill="url(#W)" fill-rule="evenodd" clip-rule="evenodd"/><path d="m35.12 45.093-3.901.917 2.304 9.795 3.901-.917a5.031 5.031 0 1 0-2.304-9.795Zm-5.908-.325 3.069 13.044c1.142-.104 3.086-.005 6.647-1.234 3.562-1.228 5.408-4.365 4.56-7.967-.846-3.602-4.839-5.527-8.75-5.143-3.91.384-5.526 1.3-5.526 1.3Z" fill="url(#X)" fill-rule="evenodd" clip-rule="evenodd"/><path d="M30.39 45.559c1.32-.514 3.429-.963 4.63-1.081 3.524-.346 6.398 1.38 7.11 4.433 1.263 5.405-3.95 7.818-9.158 7.818l-2.582-11.17Z" fill="#04005E"/><path d="M33.752 47.417c2.031-.812 5.511-.812 6.197 2.122.705 3.02-2.375 4.162-4.71 4.247l-1.487-6.37Z" fill="#fff"/><defs><linearGradient id="a" x1="148.265" x2="152.102" y1="28.032" y2="65.19" gradientUnits="userSpaceOnUse"><stop stop-color="#05004A"/><stop offset="1" stop-color="#030033"/></linearGradient><linearGradient id="b" x1="149.352" x2="150.997" y1="38.649" y2="54.573" gradientUnits="userSpaceOnUse"><stop stop-color="#FAC400"/><stop offset=".495" stop-color="#FAA500"/><stop offset="1" stop-color="#FA8700"/></linearGradient><linearGradient id="c" x1="147.657" x2="151.227" y1="39.169" y2="53.019" gradientUnits="userSpaceOnUse"><stop offset=".583" stop-color="#FDE280" stop-opacity="0"/><stop offset="1" stop-color="#FDE280"/></linearGradient><linearGradient id="d" x1="147.148" x2="151.12" y1="42.155" y2="50.096" gradientUnits="userSpaceOnUse"><stop stop-color="#832CC8"/><stop offset=".482" stop-color="#FAA501"/><stop offset="1" stop-color="#FEE280"/></linearGradient><linearGradient id="q" x1="149.942" x2="150.417" y1="44.31" y2="48.91" gradientUnits="userSpaceOnUse"><stop stop-color="#05004A"/><stop offset="1" stop-color="#030033"/></linearGradient><linearGradient id="r" x1="144.31" x2="152.639" y1="29.246" y2="61.563" gradientUnits="userSpaceOnUse"><stop stop-color="#E5E3FF"/><stop offset=".271" stop-color="#DAC9F5" stop-opacity=".37"/><stop offset=".495" stop-color="#C9A2E7" stop-opacity=".438"/><stop offset="1" stop-color="#F0F"/></linearGradient><linearGradient id="s" x1="44.542" x2="44.763" y1="26.87" y2="65.504" gradientUnits="userSpaceOnUse"><stop stop-color="#FBC401"/><stop offset="1" stop-color="#FA8901"/></linearGradient><linearGradient id="t" x1="47.668" x2="51.821" y1="33.892" y2="74.117" gradientUnits="userSpaceOnUse"><stop stop-color="#FBC401"/><stop offset="1" stop-color="#FA8901"/></linearGradient><linearGradient id="u" x1="83.284" x2="85.584" y1="59.526" y2="69.986" gradientUnits="userSpaceOnUse"><stop stop-color="#fff"/><stop offset="1" stop-color="#fff" stop-opacity="0"/></linearGradient><linearGradient id="v" x1="105.673" x2="80.19" y1="43.526" y2="28.414" gradientUnits="userSpaceOnUse"><stop stop-color="#fff" stop-opacity="0"/><stop offset=".317" stop-color="#fff"/><stop offset="1" stop-color="#fff" stop-opacity="0"/></linearGradient><linearGradient id="w" x1="99.602" x2="101.101" y1="54.458" y2="68.975" gradientUnits="userSpaceOnUse"><stop stop-color="#fff"/><stop offset="1" stop-color="#fff" stop-opacity="0"/></linearGradient><linearGradient id="x" x1="107.218" x2="101.046" y1="54.298" y2="54.761" gradientUnits="userSpaceOnUse"><stop stop-color="#fff"/><stop offset="1" stop-color="#fff" stop-opacity="0"/></linearGradient><linearGradient id="y" x1="74.11" x2="77.709" y1="47.441" y2="39.512" gradientUnits="userSpaceOnUse"><stop stop-color="#fff"/><stop offset="1" stop-color="#fff" stop-opacity="0"/></linearGradient><linearGradient id="z" x1="53.116" x2="66.359" y1="39.66" y2="75.811" gradientUnits="userSpaceOnUse"><stop offset=".141" stop-color="#FAC400"/><stop offset=".479" stop-color="#FAA500"/><stop offset=".865" stop-color="#FA8700"/></linearGradient><linearGradient id="A" x1="59.029" x2="66.931" y1="58.916" y2="62.26" gradientUnits="userSpaceOnUse"><stop offset=".135" stop-color="#fff" stop-opacity="0"/><stop offset="1" stop-color="#fff"/></linearGradient><linearGradient id="B" x1="70.954" x2="81.295" y1="45.053" y2="72.966" gradientUnits="userSpaceOnUse"><stop offset=".01" stop-color="#FBA201" stop-opacity="0"/><stop offset=".297" stop-color="#7A0049"/><stop offset="1" stop-color="#FA8701" stop-opacity="0"/></linearGradient><linearGradient id="C" x1="59.758" x2="58.307" y1="45.187" y2="61.312" gradientUnits="userSpaceOnUse"><stop offset=".01" stop-color="#FBA201" stop-opacity="0"/><stop offset=".364" stop-color="#7A0049" stop-opacity=".72"/><stop offset=".618" stop-color="#8B1240" stop-opacity=".52"/><stop offset="1" stop-color="#FA8701" stop-opacity="0"/></linearGradient><linearGradient id="D" x1="61.648" x2="63.443" y1="45.37" y2="61.636" gradientUnits="userSpaceOnUse"><stop offset=".01" stop-color="#FBA201" stop-opacity="0"/><stop offset=".094" stop-color="#7A0049"/><stop offset="1" stop-color="#FA8701" stop-opacity="0"/></linearGradient><linearGradient id="E" x1="58.667" x2="59.637" y1="65.77" y2="74.75" gradientUnits="userSpaceOnUse"><stop offset=".01" stop-color="#FBA201" stop-opacity="0"/><stop offset=".192" stop-color="#7A0049"/><stop offset=".535" stop-color="#B0392B" stop-opacity=".575"/><stop offset=".811" stop-color="#FA8701" stop-opacity="0"/></linearGradient><linearGradient id="F" x1="60.079" x2="66.06" y1="64.858" y2="71.844" gradientUnits="userSpaceOnUse"><stop stop-color="#FDE280" stop-opacity="0"/><stop offset="1" stop-color="#FDE280"/></linearGradient><linearGradient id="G" x1="60.076" x2="66.057" y1="64.858" y2="71.843" gradientUnits="userSpaceOnUse"><stop stop-color="#FDE280" stop-opacity="0"/><stop offset="1" stop-color="#FDE280"/></linearGradient><linearGradient id="H" x1="50.836" x2="69.401" y1="40.051" y2="71.752" gradientUnits="userSpaceOnUse"><stop stop-color="#fff"/><stop offset=".702" stop-color="#FA8701" stop-opacity="0"/></linearGradient><linearGradient id="I" x1="61.501" x2="63.31" y1="55.078" y2="63.492" gradientUnits="userSpaceOnUse"><stop stop-color="#FAA101" stop-opacity="0"/><stop offset=".292" stop-color="#FAA401" stop-opacity="0"/><stop offset="1" stop-color="#FDE280"/></linearGradient><linearGradient id="J" x1="64.183" x2="64.15" y1="14.512" y2="31.143" gradientUnits="userSpaceOnUse"><stop stop-color="#FBBE02"/><stop offset="1" stop-color="#FA8E02"/></linearGradient><linearGradient id="K" x1="39.901" x2="43.241" y1="15.906" y2="31.821" gradientUnits="userSpaceOnUse"><stop stop-color="#FBBE02"/><stop offset="1" stop-color="#FA8E02"/></linearGradient><linearGradient id="L" x1="39.536" x2="41.632" y1="15.482" y2="26.776" gradientUnits="userSpaceOnUse"><stop stop-color="#fff"/><stop offset="1" stop-color="#fff" stop-opacity="0"/></linearGradient><linearGradient id="M" x1="54.338" x2="57.971" y1="14.708" y2="16.508" gradientUnits="userSpaceOnUse"><stop stop-color="#fff"/><stop offset="1" stop-color="#fff" stop-opacity="0"/></linearGradient><linearGradient id="N" x1="120.756" x2="121.493" y1="25.407" y2="59.28" gradientUnits="userSpaceOnUse"><stop stop-color="#fff"/><stop offset="1" stop-color="#fff" stop-opacity="0"/></linearGradient><linearGradient id="O" x1="113.857" x2="106.215" y1="27.572" y2="27.314" gradientUnits="userSpaceOnUse"><stop stop-color="#fff"/><stop offset="1" stop-color="#fff" stop-opacity="0"/></linearGradient><linearGradient id="P" x1="113.821" x2="115.324" y1="49.727" y2="64.28" gradientUnits="userSpaceOnUse"><stop stop-color="#8B1640" stop-opacity=".31"/><stop offset=".302" stop-color="#8B1640"/><stop offset="1" stop-color="#8B1640" stop-opacity="0"/></linearGradient><linearGradient id="Q" x1="128.069" x2="128.509" y1="49.531" y2="64.196" gradientUnits="userSpaceOnUse"><stop stop-color="#8B1640" stop-opacity=".28"/><stop offset=".291" stop-color="#8B1640"/><stop offset="1" stop-color="#8B1640" stop-opacity="0"/></linearGradient><linearGradient id="R" x1="61.394" x2="70.516" y1="30.337" y2="70.945" gradientUnits="userSpaceOnUse"><stop stop-color="#FBC401"/><stop offset="1" stop-color="#FA8901"/></linearGradient><linearGradient id="S" x1="41.321" x2="31.994" y1="33.146" y2="52.178" gradientUnits="userSpaceOnUse"><stop stop-color="#fff"/><stop offset="1" stop-color="#fff" stop-opacity="0"/></linearGradient><linearGradient id="T" x1="56.01" x2="43.567" y1="62.217" y2="61.589" gradientUnits="userSpaceOnUse"><stop stop-color="#fff"/><stop offset="1" stop-color="#fff" stop-opacity="0"/></linearGradient><linearGradient id="W" x1="30.282" x2="36.398" y1="64.804" y2="50.102" gradientUnits="userSpaceOnUse"><stop stop-color="#fff"/><stop offset="1" stop-color="#fff" stop-opacity="0"/></linearGradient><linearGradient id="X" x1="35.236" x2="36.676" y1="43.351" y2="57.333" gradientUnits="userSpaceOnUse"><stop stop-color="#7B0C3B"/><stop offset=".505" stop-color="#BA4D4D" stop-opacity=".29"/><stop offset="1" stop-color="#CCB375" stop-opacity="0"/></linearGradient><radialGradient id="e" cx="0" cy="0" r="1" gradientTransform="rotate(-121.924 99.593 -12.146) scale(46.669 56.439)" gradientUnits="userSpaceOnUse"><stop offset=".222" stop-color="#fff"/><stop offset=".447" stop-color="#fff" stop-opacity="0"/></radialGradient><radialGradient id="f" cx="0" cy="0" r="1" gradientTransform="matrix(24.45212 40.58437 -49.08054 29.57107 137.888 26.352)" gradientUnits="userSpaceOnUse"><stop offset=".222" stop-color="#fff"/><stop offset=".447" stop-color="#fff" stop-opacity="0"/></radialGradient><radialGradient id="g" cx="0" cy="0" r="1" gradientTransform="rotate(-121.924 99.593 -12.146) scale(46.669 56.439)" gradientUnits="userSpaceOnUse"><stop offset=".222" stop-color="#fff"/><stop offset=".447" stop-color="#fff" stop-opacity="0"/></radialGradient><radialGradient id="h" cx="0" cy="0" r="1" gradientTransform="matrix(24.45212 40.58437 -49.08054 29.57107 137.888 26.352)" gradientUnits="userSpaceOnUse"><stop offset=".222" stop-color="#fff"/><stop offset=".447" stop-color="#fff" stop-opacity="0"/></radialGradient><radialGradient id="i" cx="0" cy="0" r="1" gradientTransform="rotate(-121.924 99.593 -12.146) scale(46.669 56.439)" gradientUnits="userSpaceOnUse"><stop offset=".222" stop-color="#fff"/><stop offset=".447" stop-color="#fff" stop-opacity="0"/></radialGradient><radialGradient id="j" cx="0" cy="0" r="1" gradientTransform="matrix(24.45212 40.58437 -49.08054 29.57107 137.888 26.352)" gradientUnits="userSpaceOnUse"><stop offset=".222" stop-color="#fff"/><stop offset=".447" stop-color="#fff" stop-opacity="0"/></radialGradient><radialGradient id="k" cx="0" cy="0" r="1" gradientTransform="rotate(-121.924 99.593 -12.146) scale(46.669 56.439)" gradientUnits="userSpaceOnUse"><stop offset=".222" stop-color="#fff"/><stop offset=".447" stop-color="#fff" stop-opacity="0"/></radialGradient><radialGradient id="l" cx="0" cy="0" r="1" gradientTransform="matrix(24.45212 40.58437 -49.08054 29.57107 137.888 26.352)" gradientUnits="userSpaceOnUse"><stop offset=".222" stop-color="#fff"/><stop offset=".447" stop-color="#fff" stop-opacity="0"/></radialGradient><radialGradient id="m" cx="0" cy="0" r="1" gradientTransform="rotate(-121.924 99.593 -12.146) scale(46.669 56.439)" gradientUnits="userSpaceOnUse"><stop offset=".222" stop-color="#fff"/><stop offset=".447" stop-color="#fff" stop-opacity="0"/></radialGradient><radialGradient id="n" cx="0" cy="0" r="1" gradientTransform="matrix(24.45212 40.58437 -49.08054 29.57107 137.888 26.352)" gradientUnits="userSpaceOnUse"><stop offset=".222" stop-color="#fff"/><stop offset=".447" stop-color="#fff" stop-opacity="0"/></radialGradient><radialGradient id="o" cx="0" cy="0" r="1" gradientTransform="rotate(-121.924 99.593 -12.146) scale(46.669 56.439)" gradientUnits="userSpaceOnUse"><stop offset=".222" stop-color="#fff"/><stop offset=".447" stop-color="#fff" stop-opacity="0"/></radialGradient><radialGradient id="p" cx="0" cy="0" r="1" gradientTransform="matrix(24.45212 40.58437 -49.08054 29.57107 137.888 26.352)" gradientUnits="userSpaceOnUse"><stop offset=".222" stop-color="#fff"/><stop offset=".447" stop-color="#fff" stop-opacity="0"/></radialGradient><radialGradient id="U" cx="0" cy="0" r="1" gradientTransform="matrix(.4984 -40.43363 23.41272 .28859 24.35 82.597)" gradientUnits="userSpaceOnUse"><stop offset=".406" stop-color="#FDE280"/><stop offset="1" stop-color="#FFF2C4" stop-opacity=".31"/></radialGradient><radialGradient id="V" cx="0" cy="0" r="1" gradientTransform="matrix(.49825 -40.43363 22.75117 .28035 24.351 82.597)" gradientUnits="userSpaceOnUse"><stop offset=".323" stop-color="#FDE280"/><stop offset="1" stop-color="#FFF2C4" stop-opacity="0"/></radialGradient></defs></svg>